<?xml version="1.0" encoding="UTF-8"?>
<!DOCTYPE svg PUBLIC "-//W3C//DTD SVG 1.1//EN" "http://www.w3.org/Graphics/SVG/1.1/DTD/svg11.dtd">
<!-- Creator: CorelDRAW (Versão de avaliação) -->
<svg xmlns="http://www.w3.org/2000/svg" xml:space="preserve" width="176.389mm" height="176.389mm" version="1.1" style="shape-rendering:geometricPrecision; text-rendering:geometricPrecision; image-rendering:optimizeQuality; fill-rule:evenodd; clip-rule:evenodd"
viewBox="0 0 17638.88 17638.88"
 xmlns:xlink="http://www.w3.org/1999/xlink"
 xmlns:xodm="http://www.corel.com/coreldraw/odm/2003">
 <defs>
  <style type="text/css">
   <![CDATA[
    .str0 {stroke:#441616;stroke-width:35.28;stroke-miterlimit:22.9256}
    .str1 {stroke:#59131C;stroke-width:35.28;stroke-linecap:round;stroke-linejoin:round;stroke-miterlimit:10}
    .str2 {stroke:#E29A9A;stroke-width:35.28;stroke-linecap:round;stroke-linejoin:round;stroke-miterlimit:10}
    .fil6 {fill:none;fill-rule:nonzero}
    .fil2 {fill:#F7BAD1}
    .fil4 {fill:#008E9E}
    .fil3 {fill:#FFE2DF}
    .fil1 {fill:white}
    .fil7 {fill:#F7BAD1;fill-rule:nonzero}
    .fil5 {fill:#59131C;fill-rule:nonzero}
    .fil0 {fill:white;fill-rule:nonzero}
   ]]>
  </style>
 </defs>
 <g id="OBJECTS">
  <metadata id="CorelCorpID_0Corel-Layer"/>
  <g id="_2020693746400">
   <path class="fil0" d="M11304.1 15307.31c-4.52,-2.12 -9.06,-5.18 -13.5,-9.24 -33.22,-30.22 -41.82,-74.1 -53.94,-113.68 -19.55,-63.84 -33.65,-129.69 -44.62,-195.61 -18.32,-110.13 -32.77,-220.81 -28.02,-333.36 3.34,-78.69 36.58,-149.31 53.37,-224.23 9.26,-41.4 25.01,-81.27 35.17,-122.51 16.55,-67.03 27.95,-135.44 46.71,-201.84 52.27,-184.73 81.75,-373.87 110.68,-563.06 10.77,-70.35 14.42,-141.79 21.16,-212.75 4.22,-44.53 12.43,-89.2 11.45,-133.63 -2.73,-122.11 -7.87,-244.2 -14.92,-366.16 -5.88,-101.53 -12.86,-203.16 -24.76,-304.12 -11.9,-101.04 -28.67,-201.61 -46.63,-301.78 -28,-156.36 -56.89,-312.61 -89.38,-468.09 -13.25,-63.48 -37.64,-124.6 -55.47,-187.2 -14.44,-50.77 -25.8,-102.44 -40.12,-153.25 -8.64,-30.71 -20.32,-60.54 -34.24,-101.39 -22.56,39.18 -26.28,72.02 -29.41,105.3 -6.29,66.62 -14.46,133.1 -19.36,199.81 -2.23,29.99 -3.26,61.52 3.47,90.41 14,60.26 19.1,120.52 15.63,181.9 -7.09,125.9 -12.05,251.95 -22.14,377.58 -5.19,64.68 -19.42,128.68 -30.02,192.91 -0.48,2.91 -5.51,5.09 -12.62,11.29 -15.45,-63.28 -20.37,-126.62 -10.31,-186 24.75,-146.14 7.06,-288.16 -24.1,-430.02 -38.42,-174.9 -75.58,-350.2 -119.04,-523.89 -17.65,-70.59 -49.81,-137.65 -76.41,-205.91 -54.04,-138.7 -114.1,-274.38 -197.63,-398.58 -40.83,-60.73 -78.01,-123.96 -119.85,-183.94 -68.13,-97.77 -154.7,-178.04 -247.4,-252.05 -9.51,-7.59 -18.39,-16.22 -26.4,-25.38 -76.51,-87.42 -164.12,-163.38 -248.24,-242.99 -86.98,-82.32 -174.88,-164.31 -254.95,-253.15 -84.31,-93.54 -158.14,-196.11 -190.46,-321.61 -7.09,-27.45 -8.74,-56.41 -17.05,-83.4 -28.76,-93.21 -60.71,-185.43 -88.88,-278.82 -30.52,-101.11 -58.06,-203.12 -87.11,-304.68 -28.51,-99.69 -58.17,-199.07 -85.62,-299.05 -12.9,-47.08 -21.71,-95.29 -32.62,-142.94 -27.7,-121.19 -68.56,-237.94 -116.86,-352.37 -14.14,-33.56 -21.97,-69.74 -33.64,-104.39 -29.2,-86.66 -60.74,-172.58 -87.94,-259.84 -25.94,-83.27 -49.18,-167.47 -70.66,-252.03 -21.53,-84.79 -38.59,-170.69 -59.05,-255.76 -29.87,-124.28 -58.69,-248.88 -92.26,-372.17 -35.76,-131.3 -71.27,-263.11 -116.68,-391.23 -44.09,-124.35 -102.45,-243.55 -151.11,-366.37 -40.99,-103.47 -107.83,-189.46 -172.59,-277.89 -66.93,-91.4 -148.15,-165.44 -251.46,-219.97 3.37,8.76 5.3,18.43 10.3,26.1 61.48,94.06 109.38,194.46 140.58,302.43 24.81,85.81 51.08,171.41 70.93,258.4 20.64,90.43 9.11,176.93 -70.9,236.47 -60.18,44.78 -122.99,87.52 -195.23,112.29 -96.37,33.06 -194.15,61.04 -295.62,73.35 -48.26,5.85 -96.77,9.86 -145.24,13.79 -31.32,2.55 -59.91,-2.99 -84.28,-26.39 -19,-18.24 -41.06,-33.36 -62.2,-49.25 -22.11,-16.59 -32.91,-39.23 -43.08,-64.61 -58.26,-145.46 -90.24,-299.32 -144.94,-445.86 -14.24,-38.16 -26.22,-77.17 -40.96,-115.12 -7.76,-19.95 -19.19,-38.45 -40.14,-55.86 -2.76,10.35 -8.3,20.84 -7.81,31.03 1.68,34.49 3.58,69.16 8.83,103.23 14.32,92.68 40.23,182.47 67.53,272.12 34.37,112.83 64.76,226.89 97.25,340.32 5.01,17.52 10.7,35.13 18.44,51.58 34.03,72.29 59.95,146.83 68.53,226.81 1.29,12.03 4.1,24.38 8.75,35.51 52.25,125.08 69.92,259.18 102.19,389.45 16.15,65.17 35.38,129.7 48.51,195.44 14.31,71.72 21.37,144.89 34.85,216.81 15.66,83.75 35.82,166.66 52.19,250.3 9.72,49.65 20.48,99.79 22.76,150.09 4.45,98.67 34.22,191.62 55.99,286.5 20.92,91.13 42.4,182.21 60.72,273.91 15.9,79.66 32.96,159.65 40.28,240.35 13.81,151.97 23.59,304.43 29.64,456.91 2.57,64.65 -7.42,129.96 -13.63,194.76 -7.19,74.68 -16.45,149.19 -24.95,223.77 -1.85,16.16 -4.31,32.23 -6.43,48.37 -11.69,88.64 -22.69,177.39 -35.24,265.91 -12.25,86.42 -23.76,173.04 -39.8,258.79 -19.05,101.91 -45.61,202.45 -63.23,304.57 -14.15,82.08 -21.45,165.49 -28.74,248.58 -6.02,68.73 -7.04,137.91 -11.62,206.8 -0.83,12.52 -8.13,24.61 -18.46,37.03 -25.6,-43.24 -28.54,-91.75 -38.47,-137.6 -9.86,-45.51 -12.31,-92.62 -19.01,-147.02 -10.12,12.95 -18.34,20.13 -22.37,29.2 -15.7,35.31 -28.91,71.74 -45.27,106.73 -12.87,27.49 -27.96,54.13 -44.44,79.63 -4.09,6.36 -21.47,12.08 -25.38,8.94 -7.91,-6.35 -11.36,-18.77 -15.39,-29.18 -1.18,-3 1.61,-7.75 2.98,-11.57 39.85,-108.58 79.71,-217.16 119.75,-325.68 2.07,-5.67 4.82,-11.6 8.82,-15.99 56.22,-61.86 53.18,-141.93 73.26,-224.02 -17.91,6.74 -28.79,9.28 -38.09,14.56 -85.14,48.33 -172.89,91.13 -265.92,121.84 -103.06,34.05 -208.28,57.33 -317.88,47.02 -21.66,-2.03 -43.56,-8.99 -63.58,-17.75 -8.98,-3.94 -13.61,-17.88 -20.21,-27.27 9.66,-5.66 18.84,-15.02 29.03,-16.26 28.21,-3.42 57.11,-1.63 85.3,-5.28 38.12,-4.94 78.26,-6.95 113.28,-20.85 118.83,-47.24 241.39,-86.67 350.42,-156.1 44.38,-28.28 88.5,-57.02 133.58,-84.09 19.1,-11.49 29.16,-25.37 31.89,-48.09 9.96,-82.61 21.62,-165.04 32.87,-247.52 8.52,-62.52 17.12,-125.02 26.17,-187.46 14.29,-98.46 29.96,-196.72 43.12,-295.32 7.79,-58.34 15.38,-117.11 16.73,-175.84 1.49,-64.95 -2.68,-130.18 -7.09,-195.08 -12.33,-180.87 -30.8,-361.02 -74.87,-537.44 -9.84,-39.41 -24.21,-77.66 -35.93,-116.62 -21.04,-69.91 -40.65,-140.31 -62.79,-209.87 -17.24,-54.13 -37.8,-107.2 -56.16,-160.97 -33.04,-96.58 -52.76,-195.53 -55.03,-298 -0.62,-27.97 -8.21,-55.79 -14.22,-94.07 -28.43,29.12 -52.78,51.16 -73.72,76.09 -48.43,57.61 -94.51,117.15 -142.87,174.84 -25.95,30.95 -54.77,59.52 -81.98,89.45 -31.3,34.45 -63.3,68.37 -92.82,104.28 -9.75,11.86 -16.8,28.84 -18.21,44.12 -7.44,80.19 -39.3,153.6 -62.85,229.1 -26.05,83.53 -55.22,166.38 -88.17,247.45 -36.74,90.41 -80.86,177.82 -118.85,267.75 -37.94,89.85 -72.29,181.23 -108.25,271.94 -24.65,62.19 -49.32,124.38 -74,186.56 -45.04,113.39 -87.84,227.72 -135.7,339.9 -69.35,162.52 -141.78,323.72 -214.15,484.92 -22.41,49.91 -51.39,96.98 -72.48,147.38 -10.49,25.12 -14.37,55 -13.41,82.46 1.63,46.48 9.8,92.72 14.63,139.12 4.01,38.29 7.97,76.62 10.6,115.06 5.71,83 8.23,166.31 16.52,249.05 5.92,59.22 27.16,115.26 60.04,165.06 53.91,81.58 114.27,158.15 185.57,225.68 19.2,18.15 37.35,37.69 54.05,58.18 80.91,99.16 162.19,198.07 241.32,298.67 47.52,60.45 89.87,124.92 137.19,185.53 48.55,62.2 100.51,121.75 150.62,182.74 64.55,78.56 130.94,155.74 192.65,236.49 117.75,154.01 217.96,319.8 313.66,487.94 40.91,71.83 80.41,145.32 108.14,224.59 13.08,37.4 39.41,70.76 62.64,103.95 33.81,48.27 75.81,91.59 104.36,142.6 55.6,99.27 126.09,190.06 168.64,296.8 39.94,100.16 78.71,200.95 123.34,299 31.32,68.84 59.62,138.03 80.24,210.85 24.36,86.08 50.07,171.95 78.82,256.65 49.06,144.65 103.72,287.36 176.15,422.07 44.75,83.16 55.29,173.75 69.04,263.86 7.94,52.01 12.47,105.15 11.98,157.73 -0.65,69.15 -7.34,138.25 -12.31,207.33 -2.18,30.39 -5.42,60.84 -10.11,90.94 -4.14,26.51 -14.21,41.35 -29.2,45.24 98.92,11.13 196.53,32.62 294.58,57.83 131.16,33.75 265.15,60.73 400.87,65.32 308.63,10.55 606.66,-84.64 912.3,-112.14 333.72,-30.04 671.85,-22.03 1003.64,-72.21 49.54,-7.48 96.72,-16.26 142.49,-27.68 21.37,-34.29 42.75,-68.57 63.96,-103.02zm-4243.5 -5451.28l0 0c89.46,1.75 178.92,3.96 268.33,7.21 30.35,1.1 60.52,7.03 90.87,8.12 85.99,3.05 170.52,-4.1 249.82,-41.98 2.71,-1.3 7.24,1.17 15.78,2.82 -3.24,10.72 -3.17,24.33 -9.93,30.71 -53.06,50.15 -114.08,83.98 -189.51,84.08 -81.37,0.1 -162.74,-1.2 -244.08,-0.14 -58.73,0.77 -112.06,-14.26 -161.28,-45.91 -16.42,-10.56 -34.07,-19.22 -60.6,-34.03 20.27,-5.62 30.49,-11.07 40.6,-10.88zm654.66 -2131.27l0 0c78.01,-19.89 141.93,-39.87 207.32,-51.98 87.94,-16.27 176.85,-27.86 265.66,-38.76 67.8,-8.32 133.66,6.87 198.54,25.28 7.51,2.13 14.6,6.55 21.03,11.1 2.83,2.01 3.55,7 7.16,14.85 -9.9,4.7 -19.31,11.57 -29.67,13.65 -37.61,7.58 -75.5,13.67 -113.3,20.1 -93.69,15.95 -187.39,31.97 -281.13,47.54 -34.03,5.65 -68.25,10.38 -102.45,14.96 -47.52,6.37 -93.51,0.98 -136.02,-22.28 -9.7,-5.32 -16.85,-15.33 -37.14,-34.46zm823.7 364.03l0 0c-95.76,62.49 -198.02,111.49 -305.4,150.13 -9.49,3.4 -19.69,6.42 -29.61,6.69 -99.53,2.64 -198.67,5.72 -294.88,-30.13 -63.27,-23.57 -85.27,-38.25 -118.95,-101.32 18.04,-20.25 40.55,-12.88 62.3,-9.9 76.19,10.49 152.15,23.46 228.66,30.4 33.69,3.06 68.46,-6.27 102.75,-9.7 91.18,-9.14 180.5,-27.24 266.46,-58.94 30.23,-11.14 58.25,-28.3 87.12,-42.98 17.41,-8.86 32.38,-25.69 59.02,-15.48 -9.92,34.34 -27.12,61.42 -57.47,81.23z"/>
   <g>
    <path class="fil1" d="M9136.98 7749.74c-35.14,-45.4 -45.89,-91.13 -55.96,-136.71 -19.79,-89.42 -41.55,-178.63 -56.1,-268.94 -12.27,-76.08 -15.49,-153.62 -22.75,-230.47 -2.1,-22.25 -3.37,-44.63 -6.8,-66.7 -20.95,-134.87 -51.39,-267.59 -91.97,-397.94 -28.98,-93.13 -57.19,-186.48 -86.78,-279.39 -12.95,-40.56 -28.49,-80.29 -44.71,-125.62 28.22,-20.42 55.47,-45.82 87.33,-62.11 95.4,-48.75 176,-118.24 254.37,-188.06 154.44,-137.64 306.53,-279.13 429.58,-446.95 63.76,-86.97 141.18,-156.41 231.2,-213.41 139.47,-88.32 313.38,-81.49 433.45,32.91 41.56,39.58 75.72,92.08 98.56,145.01 51.15,118.7 58.26,244.89 33.7,371.44 -26.62,137.15 -84.78,261.77 -157.55,380.43 -46.78,76.24 -88.16,155.79 -135.27,231.79 -25.54,41.18 -57.08,78.81 -87.62,116.69 -57.38,71.12 -115.09,142.02 -174.37,211.55 -51.36,60.27 -103.28,120.27 -158.2,177.26 -89.31,92.64 -158.39,199.75 -228.31,306.62 -27.78,42.48 -60.31,81.88 -87.8,124.56 -39.32,61.06 -77.7,122.88 -113.15,186.25 -22.61,40.45 -39.21,84.3 -60.85,131.79zm201.61 -1169.7l0 0c124.65,144.79 413.46,152.04 542.17,3.14 -6.64,-0.48 -12.2,-1.61 -17.65,-1.18 -123.35,9.54 -246.89,12.78 -370.48,6.64 -23.86,-1.18 -50.66,-3.32 -70.31,-14.89 -29.9,-17.6 -53.62,-10.44 -83.73,6.29z"/>
    <path class="fil1" d="M9790.75 9717.81c-56.6,-67.47 -121.9,-123.48 -146.87,-204.14 -23.95,-77.38 -34.8,-158.93 -50.03,-238.88 -21.27,-111.79 -38.56,-224.42 -62.59,-335.61 -25.77,-119.19 -53.07,-238.42 -87.8,-355.21 -27.73,-93.18 -67.42,-182.83 -102.24,-273.84 -20.29,-53.07 -41.13,-105.92 -62.43,-158.59 -18.26,-45.16 -35.41,-90.98 -57.02,-134.52 -17.54,-35.34 -19.3,-70.49 -8.25,-106.03 14.91,-48.06 33.3,-95.05 52.34,-148.49 53.24,21.56 101.7,37.03 146.17,60.2 64.88,33.83 128.7,70.45 189.44,111.13 43.53,29.14 80.89,67.36 121.67,100.73 80.61,65.97 153.35,141.33 210.83,226.55 55.98,83.06 100.95,173.28 127.94,273.69 47.93,178.18 49.22,358.75 39.66,538.92 -7.59,142.75 -5.65,285.06 -6.47,427.57 -0.26,50.46 5.35,100.95 8.61,157.33 -13.92,-5.08 -25.7,-6.55 -33.87,-12.78 -78.48,-59.94 -162.7,-43.94 -218.75,-0.21 -21.67,16.94 -36.33,42.86 -60.34,72.18zm240.75 -757.86l0 0c-9.41,-5.06 -15.9,-11.4 -19.6,-10.07 -99.28,35.73 -201.75,56.41 -306.46,67.47 -4.32,0.47 -7.89,8.01 -13.69,14.26 20.18,29.48 46.95,46.18 81.45,44.01 98.37,-6.22 194.34,-19.65 258.3,-115.67z"/>
    <path class="fil2" d="M7519.2 5193.3c41.94,6.64 84.42,10.92 125.62,20.61 35.35,8.35 67.31,24.59 98.26,46.31 85.05,59.71 151.09,135.17 200.55,225.29 59.45,108.26 120.44,215.96 173.22,327.49 28.33,59.93 41.57,127.13 60.18,191.48 8.42,29.14 13.49,59.26 19.81,89.02 16.13,76.09 12.19,118.64 -68.92,178.1 -68.8,50.44 -150.87,69.41 -229.53,96.15 -88.47,30.1 -178.13,54.85 -272.67,57.59 -51.15,1.48 -95.76,-16.12 -137.53,-42.14 -20.82,-12.94 -33.37,-32.15 -40.62,-57.99 -32.93,-117.14 -67.59,-233.81 -104.18,-349.86 -33.58,-106.51 -67.74,-213.01 -106.64,-317.64 -37.58,-101.13 -35.09,-199.81 10.64,-295.24 53.66,-111.97 140,-177 271.81,-169.17z"/>
    <path class="fil1" d="M10730.76 10469.63c-76.96,-47.65 -76.96,-47.65 -160.09,-25.1 -62.47,-59.74 -122.71,-119.78 -185.86,-176.65 -31.93,-28.74 -48.92,-63.13 -60.5,-103.01 -35.71,-122.95 -73.44,-245.32 -108.87,-368.35 -7.74,-26.91 -12.73,-55.64 -12.85,-83.55 -0.61,-144.47 -0.47,-288.98 1.88,-433.42 2.07,-125.96 7.92,-251.87 11.21,-377.81 3.12,-119.85 -8.25,-238.55 -37.69,-370.67 38.39,35.67 68.92,59.8 94.32,88.49 60.6,68.47 121.35,137.09 177.41,209.26 106.76,137.46 189.41,288 235.65,457.21 14.4,52.68 29.12,105.72 49.86,156.06 35.76,86.82 33.28,178.97 45.98,269.12 6.76,47.98 -2.86,93.42 -13,138.46 -27.36,121.47 -39.67,244.03 -36.09,368.29 2.22,77.07 5.65,154.1 7.95,231.15 0.15,5.16 -4.58,10.47 -9.31,20.52zm-309.61 -841.48l0 0c15.33,66.59 45.48,111.53 88.22,150.96 48.95,45.16 102.61,61.57 167.33,43.25 24.94,-7.06 43.51,-17.71 48.26,-47.79 -112.66,-16.3 -201.2,-81.35 -303.81,-146.42z"/>
    <path class="fil1" d="M11059.08 11072.66c-47.87,-7.07 -87.6,-12.96 -133.58,-19.76 -36.76,-72.92 -71.61,-152.52 -81.18,-240.7 -5.91,-54.49 -8.35,-109.33 -13.51,-163.91 -7.44,-78.86 -20.36,-157.52 -22.87,-236.52 -2.98,-93.35 -1.92,-187.32 5.54,-280.4 13.32,-166.24 62.06,-328.06 63.01,-496.33 0.41,-70.13 -5.3,-137.38 -30.54,-203.7 -18.57,-48.84 -29.21,-100.72 -44.92,-156.73 11.32,4.06 22.87,5.36 30.65,11.46 47.79,37.6 96.79,74.08 141.43,115.24 46.24,42.63 92.5,86.68 130.67,136.31 62.97,81.92 130.73,162.8 158.18,265.55 18.87,70.69 31.73,143.03 46.1,214.87 16.87,84.51 16.54,170.4 11.54,255.59 -7.12,121.46 -18.27,242.14 -69.19,356.33 -46.24,103.74 -83.46,211.44 -127.21,316.35 -18.53,44.48 -43.53,86.27 -64.12,126.35zm172.8 -657.78l0 0c-83.73,-35.08 -143.02,-99.82 -219.5,-159.15 0.51,72.02 30.31,112.49 81.3,144.37 44.26,27.68 86.73,47.38 138.2,14.78z"/>
    <path class="fil2" d="M10203.32 10096c-18.91,-13.95 -40.46,-25.45 -56.33,-42.28 -82.34,-87.2 -167.31,-171.45 -260.09,-247.69 -30.02,-24.68 -30.68,-33.72 -15.57,-67.45 23.32,-52.12 86.24,-75.63 138.39,-45.83 64.2,36.66 119.87,81.25 138.34,161.03 16.38,70.84 41.93,139.54 63.04,209.34 2.22,7.37 1.69,15.58 2.43,23.39 -3.4,3.16 -6.8,6.32 -10.21,9.49z"/>
    <path class="fil3" d="M9836.11 5217.4c109.09,-75.13 224.84,-107.89 353.21,-61.01 9.41,3.45 19.38,7.51 26.83,13.95 62.47,53.85 108.43,117.9 117.43,206.15 -31.22,-31.14 -58.93,-67.36 -94.6,-92.1 -39.33,-27.26 -84.3,-49.31 -129.91,-63.77 -43.76,-13.89 -91.48,-20.17 -137.54,-20.49 -45.1,-0.35 -90.28,11.04 -135.42,17.27z"/>
    <path class="fil2" d="M10602.7 10506.25c20.73,-25.58 35.95,-19.25 50.79,-11.65 49.68,25.49 114,145.27 107.95,201.56 -0.86,7.78 -4.71,15.22 -9.18,28.96 -71.75,-62.41 -86.69,-156.74 -149.56,-218.87z"/>
    <path class="fil2" d="M11026.64 11355.02c-8.25,-28.84 -16.58,-57.68 -24.72,-86.55 -10.9,-38.73 -21.08,-77.67 -32.81,-116.13 -4.52,-14.85 -7.55,-27.81 8.91,-36.31 18.63,-9.62 37.09,-8.27 47.44,10.89 22.22,41.1 40.29,84.64 35.28,132.42 -3.28,31.56 -13.02,62.45 -19.87,93.63 -4.75,0.7 -9.49,1.36 -14.23,2.05z"/>
    <path class="fil4" d="M8064.27 5490.18c3.37,8.76 5.3,18.43 10.3,26.1 61.48,94.06 109.38,194.46 140.58,302.43 24.81,85.81 51.08,171.41 70.93,258.4 20.64,90.43 9.11,176.93 -70.9,236.47 -60.18,44.78 -122.99,87.52 -195.23,112.29 -96.37,33.06 -194.15,61.04 -295.62,73.35 -48.26,5.85 -96.77,9.86 -145.24,13.79 -31.32,2.55 -59.91,-2.99 -84.28,-26.39 -19,-18.24 -41.06,-33.36 -62.2,-49.25 -22.11,-16.59 -32.91,-39.23 -43.08,-64.61 -58.26,-145.46 -90.24,-299.32 -144.94,-445.86 -14.24,-38.16 -26.22,-77.17 -40.96,-115.12 -7.76,-19.95 -19.19,-38.45 -40.14,-55.86 -2.76,10.35 -8.3,20.84 -7.81,31.03 1.68,34.49 3.58,69.16 8.83,103.23 14.32,92.68 40.23,182.47 67.53,272.12 34.37,112.83 64.76,226.89 97.25,340.32 5.01,17.52 10.7,35.13 18.44,51.58 34.03,72.29 59.95,146.83 68.53,226.81 1.29,12.03 4.1,24.38 8.75,35.51 52.25,125.08 69.92,259.18 102.19,389.45 16.15,65.17 35.38,129.7 48.51,195.44 14.31,71.72 21.37,144.89 34.85,216.81 15.66,83.75 35.82,166.66 52.19,250.3 9.72,49.65 20.48,99.79 22.76,150.09 4.45,98.67 34.22,191.62 55.99,286.5 20.92,91.13 42.4,182.21 60.72,273.91 15.9,79.66 32.96,159.65 40.28,240.35 13.81,151.97 23.59,304.43 29.64,456.91 2.57,64.65 -7.42,129.96 -13.63,194.76 -7.19,74.68 -16.45,149.19 -24.95,223.77 -1.85,16.16 -4.31,32.23 -6.43,48.37 -11.69,88.64 -22.69,177.39 -35.24,265.91 -12.25,86.42 -23.76,173.04 -39.8,258.79 -19.05,101.91 -45.61,202.45 -63.23,304.57 -14.15,82.08 -21.45,165.49 -28.74,248.58 -6.02,68.73 -7.04,137.91 -11.62,206.8 -0.83,12.52 -8.13,24.61 -18.46,37.03 -25.6,-43.24 -28.54,-91.75 -38.47,-137.6 -9.86,-45.51 -12.31,-92.62 -19.01,-147.02 -10.12,12.95 -18.34,20.13 -22.37,29.2 -15.7,35.31 -28.91,71.74 -45.27,106.73 -12.87,27.49 -27.96,54.13 -44.44,79.63 -4.09,6.36 -21.47,12.08 -25.38,8.94 -7.91,-6.35 -11.36,-18.77 -15.39,-29.18 -1.18,-3 1.61,-7.75 2.98,-11.57 39.85,-108.58 79.71,-217.16 119.75,-325.68 2.07,-5.67 4.82,-11.6 8.82,-15.99 56.22,-61.86 53.18,-141.93 73.26,-224.02 -17.91,6.74 -28.79,9.28 -38.09,14.56 -85.14,48.33 -172.89,91.13 -265.92,121.84 -103.06,34.05 -208.28,57.33 -317.88,47.02 -21.66,-2.03 -43.56,-8.99 -63.58,-17.75 -8.98,-3.94 -13.61,-17.88 -20.21,-27.27 9.66,-5.66 18.84,-15.02 29.03,-16.26 28.21,-3.42 57.11,-1.63 85.3,-5.28 38.12,-4.94 78.26,-6.95 113.28,-20.85 118.83,-47.24 241.39,-86.67 350.42,-156.1 44.38,-28.28 88.5,-57.02 133.58,-84.09 19.1,-11.49 29.16,-25.37 31.89,-48.09 9.96,-82.61 21.62,-165.04 32.87,-247.52 8.52,-62.52 17.12,-125.02 26.17,-187.46 14.29,-98.46 29.96,-196.72 43.12,-295.32 7.79,-58.34 15.38,-117.11 16.73,-175.84 1.49,-64.95 -2.68,-130.18 -7.09,-195.08 -12.33,-180.87 -30.8,-361.02 -74.87,-537.44 -9.84,-39.41 -24.21,-77.66 -35.93,-116.62 -21.04,-69.91 -40.65,-140.31 -62.79,-209.87 -17.24,-54.13 -37.8,-107.2 -56.16,-160.97 -33.04,-96.58 -52.76,-195.53 -55.03,-298 -0.62,-27.97 -8.21,-55.79 -14.22,-94.07 -28.43,29.12 -52.78,51.16 -73.72,76.09 -48.43,57.61 -94.51,117.15 -142.87,174.84 -25.95,30.95 -54.77,59.52 -81.98,89.45 -31.3,34.45 -63.3,68.37 -92.82,104.28 -9.75,11.86 -16.8,28.84 -18.21,44.12 -7.44,80.19 -39.3,153.6 -62.85,229.1 -26.05,83.53 -55.22,166.38 -88.17,247.45 -36.74,90.41 -80.86,177.82 -118.85,267.75 -37.94,89.85 -72.29,181.23 -108.25,271.94 -24.65,62.19 -49.32,124.38 -74,186.56 -45.04,113.39 -87.84,227.72 -135.7,339.9 -69.35,162.52 -141.78,323.72 -214.15,484.92 -22.41,49.91 -51.39,96.98 -72.48,147.38 -10.49,25.12 -14.37,55 -13.41,82.46 1.63,46.48 9.8,92.72 14.63,139.12 4.01,38.29 7.97,76.62 10.6,115.06 5.71,83 8.23,166.31 16.52,249.05 5.92,59.22 27.16,115.26 60.04,165.06 53.91,81.58 114.27,158.15 185.57,225.68 19.2,18.15 37.35,37.69 54.05,58.18 80.91,99.16 162.19,198.07 241.32,298.67 47.52,60.45 89.87,124.92 137.19,185.53 48.55,62.2 100.51,121.75 150.62,182.74 64.55,78.56 130.94,155.74 192.65,236.49 117.75,154.01 217.96,319.8 313.66,487.94 40.91,71.83 80.41,145.32 108.14,224.59 13.08,37.4 39.41,70.76 62.64,103.95 33.81,48.27 75.81,91.59 104.36,142.6 55.6,99.27 126.09,190.06 168.64,296.8 39.94,100.16 78.71,200.95 123.34,299 31.32,68.84 59.62,138.03 80.24,210.85 24.36,86.08 50.07,171.95 78.82,256.65 49.06,144.65 103.72,287.36 176.15,422.07 44.75,83.16 55.29,173.75 69.04,263.86 7.94,52.01 12.47,105.15 11.98,157.73 -0.65,69.15 -7.34,138.25 -12.31,207.33 -2.18,30.39 -5.42,60.84 -10.11,90.94 -5.02,32.1 -18.62,47.42 -39.35,46.36 -27.14,-1.36 -38.64,-20.5 -43.65,-43.71 -3.84,-17.78 -4.98,-36.28 -6.87,-54.54 -14.79,-143.42 -24.99,-287.48 -45.52,-430.08 -17.61,-122.45 -45.16,-243.25 -79.36,-362.94 -25.76,-90.1 -61.54,-176.1 -89.59,-265.09 -17.69,-56.02 -43.88,-109.38 -65.29,-164.27 -19.94,-51.19 -37.46,-103.31 -58.08,-154.17 -42.04,-103.73 -113.16,-189.69 -200.37,-407.67 -87.22,-217.96 -316.73,-589.66 -385.45,-677.78 -59.09,-75.81 -108.96,-157.19 -160.23,-237.59 -83.08,-130.35 -293.01,-449.63 -401.4,-611.5 -108.39,-161.87 -405.84,-505.53 -439.69,-551.02 -97.26,-130.73 -243.29,-298.88 -317.87,-369.51 -37.3,-35.32 -63.16,-228.13 -79.32,-424.06 -16.15,-195.92 -22.58,-394.96 -21.03,-442.68 2.44,-74.02 30.61,-143.11 62.85,-209.32 27.57,-56.65 60.09,-110.94 86.36,-168.15 33.85,-73.71 64.46,-148.95 95.01,-224.15 52.72,-129.73 102.29,-260.78 157.06,-389.63 38.14,-89.7 85.44,-175.5 123.88,-265.1 45.74,-106.62 94.79,-213 126.78,-324.01 29.54,-102.5 69.05,-199.42 113.31,-295.46 12.71,-27.54 18.51,-58.25 31.28,-85.74 33.2,-71.47 63.46,-145.06 104.51,-211.86 35.76,-58.21 83.28,-109.53 128.15,-161.7 48.85,-56.8 101.35,-110.44 150.95,-166.64 60.47,-68.55 118.57,-139.25 179.86,-207.09 19.75,-21.86 27.39,-43.49 23.3,-71.72 -25.85,-179.05 -50.36,-358.4 -91.53,-534.76 -12.88,-55.09 -33.21,-108.43 -48.19,-163.1 -14.49,-52.91 -25.59,-106.75 -39.76,-159.78 -20.45,-76.55 -41.45,-152.99 -63.75,-229.01 -49.85,-169.88 -105.21,-338.24 -133.11,-513.88 -12.04,-75.65 -1.49,-150.22 7.71,-224.6 8.19,-66.14 27.42,-129.95 28.85,-198.12 2.2,-104.4 34.7,-200.55 116.35,-272.52 80.38,-70.84 172.64,-114.22 282.38,-111.14 50.64,1.4 101.88,0.01 151.64,7.67 89.65,13.8 150.99,77.38 212.33,136.36 44.12,42.43 87.78,81.77 144.25,108.73 64.11,30.62 125.99,67.28 184.72,107.36 41.47,28.27 77.89,64.81 113.27,100.88 39.82,40.63 76.08,84.75 113.61,127.59 9.36,10.68 18.95,21.47 26.37,33.48 76.88,124.58 153.33,249.44 230.04,374.12 3.06,4.95 7.8,8.89 13.42,15.18 56.16,-21.09 98.97,-62.66 147.01,-95.5 117.93,-80.55 224.39,-174.81 325.36,-275.66 37.33,-37.28 77.6,-71.72 117.72,-106.06 45.16,-38.63 83.15,-82.34 113.86,-133.76 19.57,-32.77 47,-61 71.66,-90.63 75.61,-90.85 151.1,-183.28 249.4,-249.88 129.63,-87.85 270.09,-139.63 431.82,-100.14 57.13,13.96 100.91,46.63 135.91,87.81 40.23,47.3 73.49,99.98 92,162.63 26.24,88.78 39.89,177.61 38.97,270.08 -0.64,64.89 7.42,129.81 10.21,194.78 4.52,105.53 -16.59,205.48 -63.08,300.89 -32.03,65.81 -57.64,134.72 -89.25,200.78 -59.14,123.71 -139.13,234.02 -224.98,340.33 -176.46,218.57 -352.59,437.4 -528.9,656.09 -57.49,71.29 -111.73,143.12 -149.89,228.79 -25.87,58.06 -69.36,108.91 -88.04,175.59 22.07,8.5 45.24,15.54 66.73,26 96.86,47.14 194.43,93.09 289.24,144.1 36.83,19.82 66.91,52.09 100.38,78.28 94.95,74.26 175.41,162.98 253.91,253.65 7.95,9.17 15.59,18.87 21.72,29.3 27.64,47.26 50.11,98.37 83.29,141.24 29.3,37.85 70.69,66.23 106.01,99.56 50.19,47.32 100.78,94.29 149.19,143.39 49.99,50.7 99.29,102.3 145.85,156.12 91.18,105.34 161.73,224.09 216.45,351.8 15.55,36.25 36.41,59.22 74.12,73.26 78.92,29.34 147.3,76.64 207.49,135.8 47.77,46.96 98.5,91.08 144.21,139.93 131.34,140.33 211.41,304.67 242.55,496.2 19.15,117.65 25.45,234.95 20.64,352.65 -4.81,117.41 -17.61,234.24 -66.66,344.56 -47.81,107.55 -85.49,219.7 -135.36,326.24 -44.89,95.86 -38.88,187.32 -3.18,282.18 25.05,66.56 46.04,134.61 70.74,201.3 68.56,185.25 114.66,376.87 161.09,568.32 32.14,132.55 51.44,267.25 63.04,403.23 7.03,82.82 19.05,165.21 28.68,247.82 1.17,10.11 1.97,20.28 2.05,30.47 1.38,162.85 8.68,325.97 2.19,488.55 -6.67,166.59 -19.15,333.46 -53.18,497.66 -23.55,113.59 -43.47,227.94 -68.65,341.16 -14.52,65.38 -37.49,128.79 -54.38,193.66 -13.86,53.19 -24.45,107.15 -36.29,160.8 -21.53,97.36 -44.46,194.36 -63.42,292.14 -6.1,31.51 -3.91,65.2 -1.59,97.59 7.37,103.2 11.64,206.73 47.97,305.92 15.27,41.7 22.78,86.4 31.52,130.23 3.51,17.49 4.49,37.16 0.29,54.31 -7.91,32.04 -35.56,39.28 -60.11,16.9 -33.22,-30.22 -41.82,-74.1 -53.94,-113.68 -19.55,-63.84 -33.65,-129.69 -44.62,-195.61 -18.32,-110.13 -32.77,-220.81 -28.02,-333.36 3.34,-78.69 36.58,-149.31 53.37,-224.23 9.26,-41.4 25.01,-81.27 35.17,-122.51 16.55,-67.03 27.95,-135.44 46.71,-201.84 52.27,-184.73 81.75,-373.87 110.68,-563.06 10.77,-70.35 14.42,-141.79 21.16,-212.75 4.22,-44.53 12.43,-89.2 11.45,-133.63 -2.73,-122.11 -7.87,-244.2 -14.92,-366.16 -5.88,-101.53 -12.86,-203.16 -24.76,-304.12 -11.9,-101.04 -28.67,-201.61 -46.63,-301.78 -28,-156.36 -56.89,-312.61 -89.38,-468.09 -13.25,-63.48 -37.64,-124.6 -55.47,-187.2 -14.44,-50.77 -25.8,-102.44 -40.12,-153.25 -8.64,-30.71 -20.32,-60.54 -34.24,-101.39 -22.56,39.18 -26.28,72.02 -29.41,105.3 -6.29,66.62 -14.46,133.1 -19.36,199.81 -2.23,29.99 -3.26,61.52 3.47,90.41 14,60.26 19.1,120.52 15.63,181.9 -7.09,125.9 -12.05,251.95 -22.14,377.58 -5.19,64.68 -19.42,128.68 -30.02,192.91 -0.48,2.91 -5.51,5.09 -12.62,11.29 -15.45,-63.28 -20.37,-126.62 -10.31,-186 24.75,-146.14 7.06,-288.16 -24.1,-430.02 -38.42,-174.9 -75.58,-350.2 -119.04,-523.89 -17.65,-70.59 -49.81,-137.65 -76.41,-205.91 -54.04,-138.7 -114.1,-274.38 -197.63,-398.58 -40.83,-60.73 -78.01,-123.96 -119.85,-183.94 -68.13,-97.77 -154.7,-178.04 -247.4,-252.05 -9.51,-7.59 -18.39,-16.22 -26.4,-25.38 -76.51,-87.42 -164.12,-163.38 -248.24,-242.99 -86.98,-82.32 -174.88,-164.31 -254.95,-253.15 -84.31,-93.54 -158.14,-196.11 -190.46,-321.61 -7.09,-27.45 -8.74,-56.41 -17.05,-83.4 -28.76,-93.21 -60.71,-185.43 -88.88,-278.82 -30.52,-101.11 -58.06,-203.12 -87.11,-304.68 -28.51,-99.69 -58.17,-199.07 -85.62,-299.05 -12.9,-47.08 -21.71,-95.29 -32.62,-142.94 -27.7,-121.19 -68.56,-237.94 -116.86,-352.37 -14.14,-33.56 -21.97,-69.74 -33.64,-104.39 -29.2,-86.66 -60.74,-172.58 -87.94,-259.84 -25.94,-83.27 -49.18,-167.47 -70.66,-252.03 -21.53,-84.79 -38.59,-170.69 -59.05,-255.76 -29.87,-124.28 -58.69,-248.88 -92.26,-372.17 -35.76,-131.3 -71.27,-263.11 -116.68,-391.23 -44.09,-124.35 -102.45,-243.55 -151.11,-366.37 -40.99,-103.47 -107.83,-189.46 -172.59,-277.89 -66.93,-91.4 -148.15,-165.44 -251.46,-219.97zm1072.71 2259.56l0 0c21.64,-47.49 38.24,-91.34 60.85,-131.79 35.45,-63.37 73.83,-125.19 113.15,-186.25 27.49,-42.68 60.02,-82.08 87.8,-124.56 69.92,-106.87 139,-213.98 228.31,-306.62 54.92,-56.99 106.84,-116.99 158.2,-177.26 59.28,-69.53 116.99,-140.43 174.37,-211.55 30.54,-37.88 62.08,-75.51 87.62,-116.69 47.11,-76 88.49,-155.55 135.27,-231.79 72.77,-118.66 130.93,-243.28 157.55,-380.43 24.56,-126.55 17.45,-252.74 -33.7,-371.44 -22.84,-52.93 -57,-105.43 -98.56,-145.01 -120.07,-114.4 -293.98,-121.23 -433.45,-32.91 -90.02,57 -167.44,126.44 -231.2,213.41 -123.05,167.82 -275.14,309.31 -429.58,446.95 -78.37,69.82 -158.97,139.31 -254.37,188.06 -31.86,16.29 -59.11,41.69 -87.33,62.11 16.22,45.33 31.76,85.06 44.71,125.62 29.59,92.91 57.8,186.26 86.78,279.39 40.58,130.35 71.02,263.07 91.97,397.94 3.43,22.07 4.7,44.45 6.8,66.7 7.26,76.85 10.48,154.39 22.75,230.47 14.55,90.31 36.31,179.52 56.1,268.94 10.07,45.58 20.82,91.31 55.96,136.71zm653.77 1968.07l0 0c24.01,-29.32 38.67,-55.24 60.34,-72.18 56.05,-43.73 140.27,-59.73 218.75,0.21 8.17,6.23 19.95,7.7 33.87,12.78 -3.26,-56.38 -8.87,-106.87 -8.61,-157.33 0.82,-142.51 -1.12,-284.82 6.47,-427.57 9.56,-180.17 8.27,-360.74 -39.66,-538.92 -26.99,-100.41 -71.96,-190.63 -127.94,-273.69 -57.48,-85.22 -130.22,-160.58 -210.83,-226.55 -40.78,-33.37 -78.14,-71.59 -121.67,-100.73 -60.74,-40.68 -124.56,-77.3 -189.44,-111.13 -44.47,-23.17 -92.93,-38.64 -146.17,-60.2 -19.04,53.44 -37.43,100.43 -52.34,148.49 -11.05,35.54 -9.29,70.69 8.25,106.03 21.61,43.54 38.76,89.36 57.02,134.52 21.3,52.67 42.14,105.52 62.43,158.59 34.82,91.01 74.51,180.66 102.24,273.84 34.73,116.79 62.03,236.02 87.8,355.21 24.03,111.19 41.32,223.82 62.59,335.61 15.23,79.95 26.08,161.5 50.03,238.88 24.97,80.66 90.27,136.67 146.87,204.14zm-2271.55 -4524.51l0 0c-131.81,-7.83 -218.15,57.2 -271.81,169.17 -45.73,95.43 -48.22,194.11 -10.64,295.24 38.9,104.63 73.06,211.13 106.64,317.64 36.59,116.05 71.25,232.72 104.18,349.86 7.25,25.84 19.8,45.05 40.62,57.99 41.77,26.02 86.38,43.62 137.53,42.14 94.54,-2.74 184.2,-27.49 272.67,-57.59 78.66,-26.74 160.73,-45.71 229.53,-96.15 81.11,-59.46 85.05,-102.01 68.92,-178.1 -6.32,-29.76 -11.39,-59.88 -19.81,-89.02 -18.61,-64.35 -31.85,-131.55 -60.18,-191.48 -52.78,-111.53 -113.77,-219.23 -173.22,-327.49 -49.46,-90.12 -115.5,-165.58 -200.55,-225.29 -30.95,-21.72 -62.91,-37.96 -98.26,-46.31 -41.2,-9.69 -83.68,-13.97 -125.62,-20.61zm3211.56 5276.33l0 0c4.73,-10.05 9.46,-15.36 9.31,-20.52 -2.3,-77.05 -5.73,-154.08 -7.95,-231.15 -3.58,-124.26 8.73,-246.82 36.09,-368.29 10.14,-45.04 19.76,-90.48 13,-138.46 -12.7,-90.15 -10.22,-182.3 -45.98,-269.12 -20.74,-50.34 -35.46,-103.38 -49.86,-156.06 -46.24,-169.21 -128.89,-319.75 -235.65,-457.21 -56.06,-72.17 -116.81,-140.79 -177.41,-209.26 -25.4,-28.69 -55.93,-52.82 -94.32,-88.49 29.44,132.12 40.81,250.82 37.69,370.67 -3.29,125.94 -9.14,251.85 -11.21,377.81 -2.35,144.44 -2.49,288.95 -1.88,433.42 0.12,27.91 5.11,56.64 12.85,83.55 35.43,123.03 73.16,245.4 108.87,368.35 11.58,39.88 28.57,74.27 60.5,103.01 63.15,56.87 123.39,116.91 185.86,176.65 83.13,-22.55 83.13,-22.55 160.09,25.1zm328.32 603.03l0 0c20.59,-40.08 45.59,-81.87 64.12,-126.35 43.75,-104.91 80.97,-212.61 127.21,-316.35 50.92,-114.19 62.07,-234.87 69.19,-356.33 5,-85.19 5.33,-171.08 -11.54,-255.59 -14.37,-71.84 -27.23,-144.18 -46.1,-214.87 -27.45,-102.75 -95.21,-183.63 -158.18,-265.55 -38.17,-49.63 -84.43,-93.68 -130.67,-136.31 -44.64,-41.16 -93.64,-77.64 -141.43,-115.24 -7.78,-6.1 -19.33,-7.4 -30.65,-11.46 15.71,56.01 26.35,107.89 44.92,156.73 25.24,66.32 30.95,133.57 30.54,203.7 -0.95,168.27 -49.69,330.09 -63.01,496.33 -7.46,93.08 -8.52,187.05 -5.54,280.4 2.51,79 15.43,157.66 22.87,236.52 5.16,54.58 7.6,109.42 13.51,163.91 9.57,88.18 44.42,167.78 81.18,240.7 45.98,6.8 85.71,12.69 133.58,19.76zm-855.76 -976.66l0 0c3.41,-3.17 6.81,-6.33 10.21,-9.49 -0.74,-7.81 -0.21,-16.02 -2.43,-23.39 -21.11,-69.8 -46.66,-138.5 -63.04,-209.34 -18.47,-79.78 -74.14,-124.37 -138.34,-161.03 -52.15,-29.8 -115.07,-6.29 -138.39,45.83 -15.11,33.73 -14.45,42.77 15.57,67.45 92.78,76.24 177.75,160.49 260.09,247.69 15.87,16.83 37.42,28.33 56.33,42.28zm-367.21 -4878.6l0 0c45.14,-6.23 90.32,-17.62 135.42,-17.27 46.06,0.32 93.78,6.6 137.54,20.49 45.61,14.46 90.58,36.51 129.91,63.77 35.67,24.74 63.38,60.96 94.6,92.1 -9,-88.25 -54.96,-152.3 -117.43,-206.15 -7.45,-6.44 -17.42,-10.5 -26.83,-13.95 -128.37,-46.88 -244.12,-14.12 -353.21,61.01zm766.59 5288.85l0 0c62.87,62.13 77.81,156.46 149.56,218.87 4.47,-13.74 8.32,-21.18 9.18,-28.96 6.05,-56.29 -58.27,-176.07 -107.95,-201.56 -14.84,-7.6 -30.06,-13.93 -50.79,11.65zm423.94 848.77l0 0c4.74,-0.69 9.48,-1.35 14.23,-2.05 6.85,-31.18 16.59,-62.07 19.87,-93.63 5.01,-47.78 -13.06,-91.32 -35.28,-132.42 -10.35,-19.16 -28.81,-20.51 -47.44,-10.89 -16.46,8.5 -13.43,21.46 -8.91,36.31 11.73,38.46 21.91,77.4 32.81,116.13 8.14,28.87 16.47,57.71 24.72,86.55z"/>
    <path class="fil4" d="M7790.12 8114.16c18.04,-20.25 40.55,-12.88 62.3,-9.9 76.19,10.49 152.15,23.46 228.66,30.4 33.69,3.06 68.46,-6.27 102.75,-9.7 91.18,-9.14 180.5,-27.24 266.46,-58.94 30.23,-11.14 58.25,-28.3 87.12,-42.98 17.41,-8.86 32.38,-25.69 59.02,-15.48 -9.92,34.34 -27.12,61.42 -57.47,81.23 -95.76,62.49 -198.02,111.49 -305.4,150.13 -9.49,3.4 -19.69,6.42 -29.61,6.69 -99.53,2.64 -198.67,5.72 -294.88,-30.13 -63.27,-23.57 -85.27,-38.25 -118.95,-101.32z"/>
    <path class="fil4" d="M7715.26 7724.76c78.01,-19.89 141.93,-39.87 207.32,-51.98 87.94,-16.27 176.85,-27.86 265.66,-38.76 67.8,-8.32 133.66,6.87 198.54,25.28 7.51,2.13 14.6,6.55 21.03,11.1 2.83,2.01 3.55,7 7.16,14.85 -9.9,4.7 -19.31,11.57 -29.67,13.65 -37.61,7.58 -75.5,13.67 -113.3,20.1 -93.69,15.95 -187.39,31.97 -281.13,47.54 -34.03,5.65 -68.25,10.38 -102.45,14.96 -47.52,6.37 -93.51,0.98 -136.02,-22.28 -9.7,-5.32 -16.85,-15.33 -37.14,-34.46z"/>
    <path class="fil4" d="M7685.4 9832.2c-3.24,10.72 -3.17,24.33 -9.93,30.71 -53.06,50.15 -114.08,83.98 -189.51,84.08 -81.37,0.1 -162.74,-1.2 -244.08,-0.14 -58.73,0.77 -112.06,-14.26 -161.28,-45.91 -16.42,-10.56 -34.07,-19.22 -60.6,-34.03 20.27,-5.62 30.49,-11.07 40.6,-10.88 89.46,1.75 178.92,3.96 268.33,7.21 30.35,1.1 60.52,7.03 90.87,8.12 85.99,3.05 170.52,-4.1 249.82,-41.98 2.71,-1.3 7.24,1.17 15.78,2.82z"/>
    <path class="fil4" d="M9338.59 6580.04c30.11,-16.73 53.83,-23.89 83.73,-6.29 19.65,11.57 46.45,13.71 70.31,14.89 123.59,6.14 247.13,2.9 370.48,-6.64 5.45,-0.43 11.01,0.7 17.65,1.18 -128.71,148.9 -417.52,141.65 -542.17,-3.14z"/>
    <path class="fil4" d="M10031.5 8959.95c-63.96,96.02 -159.93,109.45 -258.3,115.67 -34.5,2.17 -61.27,-14.53 -81.45,-44.01 5.8,-6.25 9.37,-13.79 13.69,-14.26 104.71,-11.06 207.18,-31.74 306.46,-67.47 3.7,-1.33 10.19,5.01 19.6,10.07z"/>
    <path class="fil4" d="M10421.15 9628.15c102.61,65.07 191.15,130.12 303.81,146.42 -4.75,30.08 -23.32,40.73 -48.26,47.79 -64.72,18.32 -118.38,1.91 -167.33,-43.25 -42.74,-39.43 -72.89,-84.37 -88.22,-150.96z"/>
    <path class="fil4" d="M11231.88 10414.88c-51.47,32.6 -93.94,12.9 -138.2,-14.78 -50.99,-31.88 -80.79,-72.35 -81.3,-144.37 76.48,59.33 135.77,124.07 219.5,159.15z"/>
    <polygon class="fil5 str0" points="8897.3,2740.63 8547.99,2740.63 8458.11,3912.51 8987.19,3912.51 "/>
    <line class="fil6 str1" x1="8589.81" y1="3408.07" x2="8629.16" y2= "2895.03" />
    <path class="fil7 str0" d="M8977.29 5063.42c400.22,-590.05 386.74,-1041.5 136.02,-1180.51 -149.81,-83.07 -244.24,38.44 -385.51,37.4 -158.47,-1.17 -273.5,-131.98 -424.73,-6.72 -212.22,175.78 -215.39,589.11 164.92,1149.83l509.3 0z"/>
    <path class="fil6 str2" d="M8327.11 4550.58c-45.38,-277.97 -59.18,-335.84 27.85,-567.33"/>
    <path class="fil4" d="M10311.15 3461.1c-132.28,-30.59 -285.95,-26.62 -411.21,27.18 -37.48,16.1 -35.25,60.38 -9.55,85 113.97,109.11 283.19,52.88 422.57,41.91 94.08,-7.41 77.51,-135.76 -1.81,-154.09z"/>
    <path class="fil4" d="M9216.12 2080.63c-6.18,-69.39 -153.54,-82.25 -171.64,-14.98 -30.59,113.66 -35.5,241 11.84,354.09 14.92,35.64 65.93,40.1 86.82,7.56 66.22,-103.16 83.43,-229.44 72.98,-346.67z"/>
    <path class="fil4" d="M10076.44 2570.26c21.98,-55.08 -30.34,-104.71 -83.46,-98.65 -52.73,6.01 -113.92,45.29 -160.25,71.28 -62.49,35.05 -110.06,84.43 -135.76,150.8 -12.93,33.38 18.48,67.74 52.45,62.01 62.37,-10.49 118.92,-34.02 173.62,-66.13 58.99,-34.62 125.94,-50.44 153.4,-119.31z"/>
    <path class="fil4" d="M7590.87 4220.89c-114.83,16.43 -201.84,104.82 -283,180.92 -89.15,83.58 49.27,222.33 133.94,133.94 76.13,-79.47 178.23,-151.92 196,-267.92 4.71,-30.73 -16.48,-51.31 -46.94,-46.94z"/>
    <path class="fil4" d="M8188.55 2212.42c-31.49,-94.5 -196.43,-84.65 -183.25,24.8 19.24,160.16 72.87,341.6 209.73,440.06 22.13,15.92 47.5,-2.24 56.06,-22.8 61.23,-147.18 -36.96,-305.26 -82.54,-442.06z"/>
    <path class="fil4" d="M10115.92 4200.75c-112.98,-57.23 -254.11,-143.54 -384.35,-101.86 -22.48,7.2 -39.18,36.4 -23.65,58.15 71.65,100.35 216.15,137.03 323.8,187.74 96.17,45.29 180.86,-95.07 84.2,-144.03z"/>
    <path class="fil4" d="M7503.33 2940.77c-17.12,-69.95 -63.91,-105.71 -123.16,-143.84 -45.04,-29 -106.71,-67.6 -163.94,-81.29 -59.14,-31.43 -124.56,11.68 -130.26,80.78 -6.67,81.62 87.53,116.26 145.48,150.6 70.08,41.57 151.44,63.11 231.03,51.06 29.13,-4.41 48.23,-27.16 40.85,-57.31z"/>
    <path class="fil4" d="M7322.85 3635.48c-45.52,-34.14 -100.97,-35.9 -156.94,-31.44 -57.79,4.64 -112,6.6 -170.44,4.08 -81.27,-3.54 -153.66,45.33 -139.99,122.32 13.74,77.48 99.54,107.58 176.7,89.89 99.63,-22.82 231.84,-46.54 302.09,-115.03 21.02,-20.45 11.22,-52.84 -11.42,-69.82z"/>
   </g>
  </g>
 </g>
</svg>
