<?xml version="1.0" standalone="no"?>
<!DOCTYPE svg PUBLIC "-//W3C//DTD SVG 20010904//EN"
 "http://www.w3.org/TR/2001/REC-SVG-20010904/DTD/svg10.dtd">
<svg version="1.0" xmlns="http://www.w3.org/2000/svg"
 width="100.000000pt" height="100.000000pt" viewBox="0 0 100.000000 100.000000"
 preserveAspectRatio="xMidYMid meet">

<g transform="translate(0.000000,100.000000) scale(0.100000,-0.100000)"
fill="#000000" stroke="none">
<path d="M65 875 l-25 -24 0 -251 0 -251 25 -24 c13 -14 28 -25 33 -25 5 0 15
-37 22 -82 15 -92 39 -128 87 -128 58 0 697 120 719 135 13 8 26 26 29 38 4
13 -12 126 -34 252 -23 126 -41 253 -41 283 0 43 -5 58 -25 77 l-24 25 -371 0
-371 0 -24 -25z m763 -27 c7 -7 12 -29 12 -50 l0 -38 -380 0 -380 0 0 38 c0
21 5 43 12 50 17 17 719 17 736 0z m12 -336 c0 -102 -4 -152 -12 -160 -17 -17
-719 -17 -736 0 -8 8 -12 58 -12 160 l0 148 380 0 380 0 0 -148z m68 -249
c-22 -21 -695 -140 -716 -126 -9 5 -22 36 -29 69 -22 105 -59 94 327 94 l341
0 24 25 c22 21 25 34 26 97 l1 73 20 -109 c17 -94 18 -110 6 -123z"/>
<path d="M180 580 c0 -19 7 -20 160 -20 153 0 160 1 160 20 0 19 -7 20 -160
20 -153 0 -160 -1 -160 -20z"/>
</g>
</svg>
