<?xml version="1.0" standalone="no"?>
<!DOCTYPE svg PUBLIC "-//W3C//DTD SVG 20010904//EN"
 "http://www.w3.org/TR/2001/REC-SVG-20010904/DTD/svg10.dtd">
<svg version="1.0" xmlns="http://www.w3.org/2000/svg"
 width="96.000000pt" height="96.000000pt" viewBox="0 0 96.000000 96.000000"
 preserveAspectRatio="xMidYMid meet">

<g transform="translate(0.000000,96.000000) scale(0.100000,-0.100000)"
fill="#000000" stroke="none">
<path d="M253 807 c-133 -49 -214 -195 -185 -333 12 -60 62 -148 89 -158 9 -4
23 0 31 8 14 13 12 19 -11 53 -58 84 -70 153 -42 234 35 98 116 148 238 149
75 0 77 1 77 24 0 13 -7 27 -16 30 -26 10 -147 5 -181 -7z"/>
<path d="M730 795 c-9 -11 -11 -39 -8 -98 8 -115 33 -163 72 -134 14 11 14 16
1 52 -8 22 -14 69 -15 106 0 79 -21 109 -50 74z"/>
<path d="M486 753 c-5 -11 5 -28 28 -52 68 -72 88 -145 62 -234 -13 -46 -33
-74 -112 -161 -52 -58 -102 -106 -110 -106 -8 0 -37 23 -63 52 -49 54 -81 61
-81 18 0 -30 85 -117 128 -131 43 -14 344 -6 437 11 178 35 198 138 35 183
-33 10 -60 21 -60 26 0 5 23 15 52 21 91 22 122 77 73 126 -21 21 -28 24 -41
13 -10 -8 -13 -21 -9 -40 6 -25 3 -29 -32 -38 -21 -6 -43 -11 -49 -11 -6 0
-23 -9 -38 -21 -55 -43 -20 -100 84 -134 34 -11 62 -24 62 -30 0 -16 -69 -35
-166 -45 -102 -11 -236 -13 -236 -4 0 3 32 40 70 82 95 104 125 166 124 257
-1 81 -26 143 -80 199 -38 39 -68 46 -78 19z"/>
<path d="M314 631 c-36 -16 -64 -60 -64 -102 0 -68 66 -116 136 -98 43 12 66
41 71 92 5 38 1 48 -23 76 -31 34 -82 48 -120 32z m70 -67 c39 -39 1 -93 -51
-73 -17 6 -23 16 -23 38 0 45 44 66 74 35z"/>
</g>
</svg>
