<?xml version="1.0" standalone="no"?>
<!DOCTYPE svg PUBLIC "-//W3C//DTD SVG 20010904//EN"
 "http://www.w3.org/TR/2001/REC-SVG-20010904/DTD/svg10.dtd">
<svg version="1.0" xmlns="http://www.w3.org/2000/svg"
 width="100.000000pt" height="100.000000pt" viewBox="0 0 100.000000 100.000000"
 preserveAspectRatio="xMidYMid meet">

<g transform="translate(0.000000,100.000000) scale(0.100000,-0.100000)"
fill="#000000" stroke="none">
<path d="M632 943 c-18 -9 -41 -26 -51 -39 -16 -20 -28 -24 -73 -24 -211 0
-385 -147 -421 -354 -47 -277 202 -526 479 -479 283 49 436 353 305 605 -29
54 -30 61 -19 102 35 133 -99 249 -220 189z m119 -38 c37 -20 69 -70 69 -110
0 -30 -65 -170 -100 -215 l-20 -25 -20 25 c-35 46 -100 185 -100 216 0 17 10
46 23 65 39 57 91 73 148 44z m-271 -145 l0 -80 -60 0 c-35 0 -60 4 -60 10 0
24 41 89 75 118 20 18 38 32 40 32 3 0 5 -36 5 -80z m60 46 c0 -18 7 -53 15
-76 19 -53 20 -50 -10 -50 -25 0 -25 1 -25 80 0 47 4 80 10 80 6 0 10 -15 10
-34z m-198 -56 l-36 -70 -60 0 -60 0 39 41 c35 36 128 99 147 99 3 0 -10 -31
-30 -70z m507 -143 c10 -30 23 -70 26 -90 l7 -37 -81 0 c-94 0 -98 6 -52 73
15 23 36 57 45 75 9 17 21 32 26 32 5 0 18 -24 29 -53z m-553 10 c-3 -13 -8
-49 -12 -80 l-7 -57 -78 0 c-91 0 -89 -3 -59 94 l21 66 70 0 c69 0 71 -1 65
-23z m184 -57 l0 -80 -81 0 -81 0 7 58 c12 107 8 102 86 102 l69 0 0 -80z
m158 14 c59 -92 58 -94 -38 -94 l-80 0 0 80 0 80 38 0 c36 0 41 -4 80 -66z
m-354 -191 c4 -31 9 -67 12 -80 6 -22 4 -23 -65 -23 l-70 0 -21 66 c-30 97
-32 94 59 94 l78 0 7 -57z m196 -23 l0 -80 -69 0 c-78 0 -74 -5 -86 103 l-7
57 81 0 81 0 0 -80z m195 23 c-12 -108 -8 -103 -86 -103 l-69 0 0 80 0 80 81
0 81 0 -7 -57z m205 43 c0 -8 -9 -44 -20 -80 l-21 -66 -70 0 c-69 0 -71 1 -65
23 3 13 8 49 12 80 l7 57 78 0 c61 0 79 -3 79 -14z m-538 -256 c20 -38 33 -70
30 -70 -19 0 -112 63 -147 99 l-39 41 60 0 60 0 36 -70z m138 -10 c0 -74 -1
-80 -17 -71 -39 21 -103 108 -103 141 0 6 25 10 60 10 l60 0 0 -80z m160 70
c0 -33 -64 -120 -102 -141 -17 -9 -18 -3 -18 71 l0 80 60 0 c35 0 60 -4 60
-10z m135 -31 c-35 -36 -128 -99 -147 -99 -3 0 10 32 30 70 l36 70 60 0 60 0
-39 -41z"/>
<path d="M645 855 c-16 -15 -25 -36 -25 -55 0 -19 9 -40 25 -55 15 -16 36 -25
55 -25 19 0 40 9 55 25 16 15 25 36 25 55 0 19 -9 40 -25 55 -15 16 -36 25
-55 25 -19 0 -40 -9 -55 -25z m85 -30 c26 -32 -13 -81 -47 -59 -35 22 -23 74
17 74 10 0 23 -7 30 -15z"/>
</g>
</svg>
