<?xml version="1.0" standalone="no"?>
<!DOCTYPE svg PUBLIC "-//W3C//DTD SVG 20010904//EN"
 "http://www.w3.org/TR/2001/REC-SVG-20010904/DTD/svg10.dtd">
<svg version="1.0" xmlns="http://www.w3.org/2000/svg"
 width="100.000000pt" height="100.000000pt" viewBox="0 0 100.000000 100.000000"
 preserveAspectRatio="xMidYMid meet">

<g transform="translate(0.000000,100.000000) scale(0.100000,-0.100000)"
fill="#000000" stroke="none">
<path d="M434 984 c-17 -8 -119 -103 -226 -212 -282 -283 -282 -261 10 -554
294 -293 270 -293 564 0 292 292 291 271 11 554 -108 108 -211 204 -229 213
-40 19 -90 19 -130 -1z m223 -136 l103 -103 -37 -8 c-28 -6 -59 -28 -124 -92
-47 -47 -92 -85 -99 -85 -7 0 -52 38 -100 85 -69 68 -95 87 -124 92 l-38 6 99
99 c54 55 107 104 118 109 11 5 38 7 59 5 34 -4 53 -18 143 -108z m-273 -238
c58 -55 103 -90 116 -90 13 0 58 35 116 90 91 88 95 90 142 90 46 0 50 -3 122
-75 73 -74 75 -77 75 -125 0 -48 -2 -51 -75 -125 -72 -72 -76 -75 -122 -75
-47 0 -51 2 -142 90 -58 55 -103 90 -116 90 -13 0 -58 -35 -116 -90 -91 -88
-95 -90 -142 -90 -46 0 -50 3 -122 75 -73 74 -75 77 -75 125 0 48 2 51 75 125
72 72 76 75 122 75 47 0 51 -2 142 -90z m215 -254 c53 -51 100 -88 117 -91 16
-4 32 -8 37 -8 4 -1 -40 -49 -98 -107 l-105 -105 -50 0 -50 0 -105 105 -105
105 37 8 c28 6 59 28 124 92 47 47 92 85 99 85 6 0 51 -38 99 -84z"/>
</g>
</svg>
