<?xml version="1.0" standalone="no"?>
<!DOCTYPE svg PUBLIC "-//W3C//DTD SVG 20010904//EN"
 "http://www.w3.org/TR/2001/REC-SVG-20010904/DTD/svg10.dtd">
<svg version="1.0" xmlns="http://www.w3.org/2000/svg"
 width="100.000000pt" height="100.000000pt" viewBox="0 0 100.000000 100.000000"
 preserveAspectRatio="xMidYMid meet">

<g transform="translate(0.000000,100.000000) scale(0.100000,-0.100000)"
fill="#000000" stroke="none">
<path d="M386 944 c-158 -38 -293 -175 -331 -335 -25 -107 -17 -195 28 -301
15 -36 14 -42 -15 -144 -18 -66 -26 -110 -20 -116 5 -5 50 1 117 18 l107 27
67 -22 c280 -96 565 70 613 357 54 323 -243 594 -566 516z m264 -53 c111 -43
197 -128 242 -241 31 -78 31 -222 0 -300 -45 -112 -130 -197 -242 -242 -82
-33 -223 -32 -305 3 l-61 25 -93 -23 c-52 -13 -95 -22 -97 -20 -2 2 8 43 22
91 l25 87 -26 65 c-96 240 30 500 275 569 72 20 188 14 260 -14z"/>
<path d="M297 729 c-25 -15 -57 -83 -57 -122 0 -90 134 -252 255 -308 37 -18
89 -34 115 -37 79 -7 142 39 144 105 1 37 -1 39 -66 73 l-67 35 -35 -34 -35
-34 -45 27 c-25 14 -57 42 -72 62 -27 35 -27 35 -9 68 18 33 18 36 1 83 -29
78 -42 93 -79 93 -17 0 -40 -5 -50 -11z m85 -81 l20 -47 -21 -27 c-12 -15 -21
-32 -21 -40 0 -21 100 -124 141 -145 52 -26 73 -24 101 10 l24 28 47 -24 c26
-13 47 -30 47 -38 0 -19 -39 -54 -67 -61 -66 -17 -186 41 -272 130 -97 102
-124 192 -74 248 27 30 52 18 75 -34z"/>
</g>
</svg>
