<svg width="1440" height="703" viewBox="0 0 1440 703" fill="none" xmlns="http://www.w3.org/2000/svg">
<g clip-path="url(#clip0_24_2)">
<mask id="mask0_24_2" style="mask-type:luminance" maskUnits="userSpaceOnUse" x="0" y="0" width="1440" height="703">
<path d="M0 0H1440V703H0V0Z" fill="white"/>
</mask>
<g mask="url(#mask0_24_2)">
<path d="M1440 0H0V703H1440V0Z" fill="#008E9E"/>
<mask id="mask1_24_2" style="mask-type:luminance" maskUnits="userSpaceOnUse" x="0" y="0" width="1440" height="703">
<path d="M1440 0H0V703H1440V0Z" fill="white"/>
</mask>
<g mask="url(#mask1_24_2)">
<path d="M-21.3485 285.12C5.11486 284.35 30.6874 279.604 56.3463 275.473C89.3568 270.16 122.46 267.092 156.23 270.37C175.715 271.123 205.023 275.244 214.639 282.456C221.482 287.589 231.012 293.898 220.735 315.252C213.287 330.725 201.971 345.197 193.094 360.155C189.51 366.196 184.714 372.07 185.616 379.096C182.688 394.96 187.356 400.631 208.345 405.406C233.844 411.207 260.266 414.258 286.168 418.88C324.434 425.709 360.349 437.165 396.603 448.049C416.408 453.995 436.593 459.385 458.548 459.29C476.292 459.212 482.548 453.553 477.873 440.868C470.099 419.778 454.143 403.523 425.866 394.559C408.977 389.205 391.164 385.358 375.729 377.59C339.469 359.341 335.424 331.874 365.796 308.696C378.482 299.014 393.448 291.583 409.329 285.096C419.969 280.749 430.608 276.33 441.667 272.612C477.759 260.477 497.24 239.857 502.716 211.315C505.455 197.03 509.123 182.779 516.482 169.256C531.564 141.544 558.536 124.736 599.806 121.947C620.185 120.569 639.621 124.787 658.689 129.621C683.564 135.927 708.261 142.521 734.621 145.099C761.933 147.769 789.174 147.165 816.399 145.184C856.32 142.279 896.219 139.179 936.071 135.799C975.604 132.447 1015.03 128.427 1054.57 125.123C1078.41 123.131 1102.3 120.562 1126.42 122.841C1130.32 123.209 1134.31 123.663 1137.97 124.635C1149.72 127.745 1153.31 133.015 1149.01 141.6C1141.59 156.443 1127.89 168.792 1117.82 182.603C1090.91 219.541 1070.32 257.831 1069.53 300.483C1069.52 300.966 1069.53 301.448 1069.53 301.93C1069.76 326.725 1081.33 334.676 1115.31 334.135C1157.06 333.47 1185.84 320.108 1200.25 290.558C1214.29 261.772 1221.11 231.859 1228.68 202.023C1233.54 182.827 1237.76 163.549 1243.68 144.49C1248.19 129.93 1257.26 117.096 1271.73 106.907C1324.91 69.4424 1379.11 32.7965 1439.21 1.18395C1446.19 -2.4829 1453.51 -5.72513 1461.88 -7.46436V7.01042C1451.91 9.12645 1443.34 13.1898 1434.97 17.4893C1400.76 35.0686 1371.43 56.5143 1343.77 79.2718C1318.86 99.7755 1298.5 122.411 1283.3 147.581C1262.55 181.944 1250.28 218.161 1238.23 254.473C1230.17 278.806 1222.65 303.288 1206.88 325.855C1194.87 343.042 1176.1 353.405 1150.02 355.84C1115.96 359.021 1083.54 365.41 1053.99 378.678C1046.66 381.972 1042.45 380.326 1040.66 374.013C1038.72 367.133 1038.52 360.12 1038.88 353.118C1040.9 314.25 1048.53 275.974 1061.1 238.178C1068.17 216.907 1077.53 196.011 1080.91 174.115C1083.39 158.065 1075.28 148.836 1054.09 144.358C1046.49 142.751 1038.71 141.877 1030.73 141.693C996.405 140.895 962.358 143.392 928.251 145.75C893.222 148.171 858.355 151.606 823.365 154.171C798.511 155.992 773.618 157.59 748.479 156.835C715.513 155.844 684.242 149.552 653.044 142.573C632.774 138.038 612.213 134.471 590.87 137.729C555.686 143.1 537.713 161.014 528.315 184.771C522.712 198.934 520.589 213.607 518.502 228.183C514.086 259.009 493.167 280.129 453.185 291.124C438.707 295.105 424.51 299.735 411.448 305.944C397.899 312.384 386.458 320.174 381.502 331.908C376.573 343.582 382.593 354.457 397.377 360.008C417.767 367.663 437.245 364.767 455.34 356.004C467.124 350.297 477.817 343.396 489.235 337.266C504.263 329.197 520.829 324.179 539.898 325.454C570.948 327.531 601.068 343.24 585.757 375.506C582.317 382.758 577.82 389.849 572.655 396.537C557.81 415.757 556.249 434.834 571.77 454.227C573.75 456.7 575.184 459.467 576.346 462.217C579.443 469.544 578.237 476.592 572.423 482.995C563.092 493.273 550.33 498.981 533.013 499.583C502.236 500.653 474.964 492.27 447.686 483.625C411.366 472.112 377.927 456.393 341.71 444.74C289.452 427.926 235.703 421.887 180.127 434.526C159.091 439.31 138.929 446.115 118.04 451.291C99.1757 455.965 90.2842 450.558 91.2845 436.006C91.3997 434.326 91.8221 432.657 92.1255 430.985C95.5815 412.04 104.454 393.994 109.436 375.301C112.917 362.238 114.985 349.158 112.547 335.802C109.304 318.037 95.9079 306.526 72.9466 303.11C61.6435 301.428 50.1351 300.788 38.5248 301.504C18.5088 302.737 -1.52834 303.792 -21.5577 304.925C-21.4867 298.322 -21.4176 291.721 -21.3485 285.12Z" fill="#008E9E"/>
<path d="M-21.554 304.919C-1.52642 303.79 18.5106 302.734 38.5266 301.501C50.1369 300.786 61.6454 301.425 72.9484 303.107C95.9116 306.524 109.308 318.034 112.549 335.799C114.987 349.155 112.919 362.235 109.438 375.298C104.456 393.991 95.5833 412.037 92.1273 430.983C91.822 432.654 91.4015 434.323 91.2863 436.003C90.286 450.554 99.1775 455.962 118.042 451.288C138.929 446.113 159.093 439.306 180.129 434.523C235.703 421.884 289.452 427.923 341.712 444.738C377.929 456.39 411.368 472.111 447.688 483.622C474.964 492.267 502.236 500.65 533.015 499.58C550.332 498.978 563.094 493.27 572.425 482.992C578.239 476.589 579.445 469.541 576.348 462.214C575.186 459.464 573.752 456.697 571.772 454.224C556.251 434.831 557.812 415.756 572.657 396.534C577.822 389.847 582.317 382.755 585.759 375.503C601.071 343.236 570.952 327.526 539.9 325.451C520.831 324.176 504.265 329.195 489.237 337.263C477.819 343.393 467.126 350.292 455.341 356.001C437.247 364.764 417.769 367.661 397.379 360.005C382.597 354.454 376.575 343.579 381.504 331.905C386.46 320.17 397.901 312.381 411.45 305.941C424.514 299.733 438.709 295.103 453.187 291.121C493.169 280.126 514.088 259.005 518.504 228.18C520.591 213.604 522.714 198.932 528.317 184.768C537.715 161.011 555.688 143.097 590.872 137.726C612.215 134.468 632.776 138.036 653.046 142.57C684.244 149.551 715.515 155.843 748.481 156.832C773.62 157.587 798.513 155.989 823.367 154.168C858.359 151.605 893.224 148.169 928.253 145.747C962.36 143.39 996.407 140.893 1030.74 141.69C1038.71 141.875 1046.49 142.75 1054.09 144.355C1075.28 148.835 1083.39 158.063 1080.91 174.112C1077.53 196.008 1068.17 216.904 1061.1 238.175C1048.53 275.971 1040.9 314.247 1038.89 353.116C1038.52 360.117 1038.72 367.131 1040.67 374.01C1042.45 380.323 1046.66 381.968 1054 378.675C1083.54 365.407 1115.96 359.018 1150.02 355.838C1176.1 353.402 1194.87 343.039 1206.88 325.852C1222.65 303.286 1230.17 278.803 1238.24 254.471C1250.28 218.158 1262.55 181.941 1283.3 147.578C1298.5 122.408 1318.86 99.7726 1343.77 79.2689C1371.43 56.5128 1400.77 35.0671 1434.97 17.4865C1443.34 13.1869 1451.91 9.1236 1461.88 7.00757V21.4823C1451.56 21.6426 1444.27 26.506 1436.8 30.6368C1389.56 56.7617 1353.29 89.8899 1323.41 126.949C1287.84 171.088 1268.45 219.602 1252.09 268.961C1243.68 294.338 1236.15 319.958 1220.71 343.792C1209.77 360.697 1193.27 372.496 1167.13 375.586C1159.98 376.431 1152.79 377.133 1145.59 377.631C1100.18 380.769 1075.07 396.332 1063.64 428.713C1058.93 442.053 1057.57 455.734 1056.31 469.427C1054.83 485.287 1054.72 501.887 1040.3 514.82C1016.54 536.118 985.866 551.304 950.867 560.787C926.185 567.476 909.086 558.827 905.023 539.7C902.531 527.964 907.054 516.781 912.649 505.946C924.229 483.523 942.432 463.695 959.457 443.45C986.673 411.085 1008.65 377.207 1017.85 339.472C1026.13 305.476 1034.31 271.466 1042.46 237.452C1046.15 222.072 1050.55 206.706 1050.16 191.012C1049.66 170.946 1037.62 160.045 1011.84 156.349C994.049 153.798 976.009 152.841 957.796 153.863C937.139 155.023 916.437 155.587 895.836 157.454C863.269 160.406 830.655 163.127 798.01 165.565C768.824 167.746 739.661 168.364 710.369 165.34C685.922 162.816 662.289 157.915 638.346 153.913C586.915 145.317 554.65 159.965 543.491 197.882C537.335 218.8 539.063 240.082 540.868 261.248C542.07 275.338 552.163 285.543 568.368 292.885C579.569 297.961 590.763 303.087 601.471 308.69C622.199 319.537 633.005 334.316 632.229 353.183C631.709 365.845 627.316 378.014 621.734 389.871C613.592 407.162 614.104 423.209 629.654 438.55C640.172 448.926 639.951 460.573 632.867 472.232C618.528 495.83 570.814 526.541 514.973 517.349C487.736 512.865 462.67 504.875 438.09 495.619C403.346 482.536 371.374 465.856 335.939 453.677C299.025 440.991 260.59 435.672 220.13 441.324C186.234 446.059 156.637 457.913 128.899 472.381C111.477 481.468 94.8882 491.422 77.3068 500.334C63.0681 507.551 53.9788 504.19 51.262 491.559C49.6684 484.145 49.5551 476.734 50.3961 469.215C52.4178 451.14 58.222 433.644 64.2259 416.144C70.1471 398.886 76.9881 381.695 76.7462 363.687C76.4198 339.417 60.6547 326.993 27.8303 323.741C11.3682 322.11 -5.07651 322.915 -21.5329 322.659C-21.5406 316.745 -21.5463 310.833 -21.554 304.919ZM1032.05 446.748C1032.05 438.804 1032.72 430.82 1031.77 422.938C1031.3 419.016 1033.32 413.211 1026.4 411.495C1019.08 409.679 1015.4 415.088 1011.53 418.292C983.551 441.498 959.885 466.923 940.652 494.486C933.729 504.408 928.744 514.908 929.353 526.307C929.973 537.913 940.478 544.145 955.244 540.163C991.227 530.46 1018.69 514.013 1028.98 485.52C1033.57 472.794 1032.97 459.747 1032.05 446.748Z" fill="white"/>
<path d="M1461.88 64.9067V82.2765C1452.68 83.9018 1446.74 88.9114 1440.62 93.5624C1403.71 121.628 1375.11 153.828 1352.7 189.038C1315.97 246.736 1300.78 308.44 1289.65 370.909C1285.82 392.398 1283.77 414.123 1275.66 435.092C1267.55 456.05 1253.75 463.508 1223.96 463.302C1214.09 463.235 1204.23 462.425 1194.36 462.121C1187.78 461.919 1181.15 461.605 1174.63 462.048C1154.6 463.409 1143.64 471.037 1140.28 485.583C1138.84 491.81 1139.25 498.07 1140.24 504.327C1146.2 541.926 1171.2 571.763 1209.2 596.674C1238.15 615.645 1267.44 634.51 1289.61 658.222C1305.1 674.786 1317.47 692.22 1313.5 713.367H1258.11C1257.9 712.673 1257.91 711.876 1257.44 711.301C1224.48 671.785 1189.85 633.054 1150.81 596.612C1129.98 577.169 1102.37 566.326 1067.32 568.626C1047.3 569.939 1029.31 575.905 1011.56 582.256C991.515 589.425 972.2 597.755 950.665 602.529C912.361 611.02 881.56 601.263 863.964 574.89C849.59 553.348 849.602 530.764 855.725 507.881C862.501 482.565 879.748 460.564 898.285 439.202C936.62 395.029 961.905 347.468 970.526 295.385C973.742 275.952 976.069 256.466 969.506 237.133C963.21 218.59 946.804 208.513 920.784 206.398C898.75 204.607 877.3 207.156 856.203 211.156C831.637 215.813 807.045 220.8 785.658 231.384C771.792 238.245 768.476 245.443 773.724 256.986C777.254 264.753 781.665 272.316 785.969 279.881C816.215 333.051 811.803 384.935 774.415 435.282C750.465 467.533 717.469 494.885 683.879 521.812C662.884 538.642 639.898 553.849 612.407 564.833C569.585 581.939 526.842 585.644 483.504 564.823C455.985 551.601 427.548 539.394 400.166 525.982C373.912 513.123 349.125 498.682 321.454 487.345C281.533 470.99 241.375 470.573 200.901 485.963C156.472 502.857 123.744 528.233 100.861 560.593C83.6852 584.885 73.8586 611.035 65.2263 637.451C56.6803 663.605 48.0192 689.711 29.5642 713.364H-21.8726C-21.744 707.461 -21.6173 701.56 -21.4886 695.659C-16.1261 697.188 -12.2784 700.244 -8.0601 702.895C5.1591 711.203 13.4439 710.526 23.8157 700.067C34.8499 688.939 40.3546 676.049 45.3139 663.044C53.9674 640.359 59.2781 617.06 69.1277 594.576C89.6333 547.772 124.854 509.134 183.214 483.144C231.441 461.667 280.395 459.577 329.843 480.762C343.183 486.478 356.133 492.719 368.903 499.105C408.102 518.704 447.798 537.607 491.324 551.876C538.508 567.345 583.715 564.214 625.231 542.635C686.857 510.602 731.935 468.391 760.09 416.992C772.274 394.744 774.104 371.6 765.65 348.141C751.83 309.791 729.615 275.663 681.253 253.77C671.251 249.243 662.024 243.531 654.906 236.44C646.65 228.215 649.611 220.457 662.483 216.804C667.356 215.422 672.534 214.28 677.702 213.837C727.73 209.541 777.658 204.846 827.19 197.978C862.731 193.05 898.257 187.807 934.911 190.63C966.012 193.026 984.801 205.882 989.317 228.499C994.151 252.719 989.445 276.59 984.52 300.395C973.734 352.549 948.238 400.672 909.855 445.317C893.558 464.273 878.281 483.722 869.724 505.53C860.628 528.705 859.275 551.56 874.938 573.614C887.695 591.576 909.854 599.402 937.275 596.228C960.553 593.533 980.377 584.751 1000.7 576.918C1023.46 568.146 1046.2 559.356 1072 556.353C1081.74 555.22 1091.61 554.684 1101.42 553.894C1118.02 552.557 1122.2 549.347 1121.95 537.289C1121.84 532.007 1121.17 526.698 1120.15 521.463C1117.13 505.942 1114.24 490.444 1115.43 474.684C1117.17 451.536 1134.53 438.662 1165.98 437.927C1178.16 437.643 1190.37 438.143 1202.56 438.166C1228.42 438.214 1246.65 429.824 1256.17 411.958C1257.6 409.267 1259.06 406.575 1260.25 403.824C1270.78 379.651 1275.35 354.544 1281.75 329.731C1293.42 284.506 1306.75 239.618 1331.35 196.998C1357.63 151.466 1392.95 110.231 1440.88 75.1115C1446.86 70.7304 1452.76 65.9655 1461.88 64.9067Z" fill="white"/>
<path d="M1461.88 64.9066C1452.76 65.9653 1446.86 70.7316 1440.87 75.1156C1392.94 110.236 1357.63 151.47 1331.34 197.002C1306.74 239.62 1293.41 284.51 1281.74 329.735C1275.34 354.548 1270.77 379.655 1260.24 403.828C1259.05 406.577 1257.6 409.271 1256.16 411.962C1246.64 429.828 1228.41 438.218 1202.55 438.17C1190.36 438.148 1178.15 437.647 1165.97 437.931C1134.52 438.666 1117.17 451.54 1115.42 474.688C1114.23 490.449 1117.12 505.946 1120.14 521.467C1121.16 526.702 1121.84 532.011 1121.94 537.293C1122.19 549.351 1118.02 552.561 1101.42 553.898C1091.6 554.688 1081.73 555.224 1071.99 556.357C1046.19 559.359 1023.46 568.151 1000.69 576.923C980.369 584.755 960.545 593.537 937.267 596.233C909.846 599.407 887.687 591.582 874.931 573.619C859.267 551.565 860.621 528.709 869.716 505.534C878.273 483.726 893.551 464.277 909.848 445.321C948.23 400.676 973.726 352.553 984.513 300.399C989.438 276.593 994.143 252.723 989.309 228.503C984.795 205.886 966.004 193.03 934.904 190.634C898.247 187.811 862.723 193.052 827.182 197.982C777.65 204.85 727.722 209.545 677.695 213.841C672.526 214.286 667.35 215.426 662.475 216.808C649.605 220.459 646.643 228.218 654.899 236.444C662.016 243.535 671.244 249.247 681.245 253.775C729.608 275.667 751.822 309.794 765.642 348.145C774.096 371.604 772.266 394.749 760.082 416.996C731.929 468.395 686.849 510.606 625.223 542.639C583.707 564.218 538.5 567.349 491.316 551.88C447.79 537.611 408.094 518.709 368.895 499.109C356.125 492.724 343.175 486.483 329.835 480.766C280.385 459.581 231.433 461.67 183.206 483.148C124.846 509.138 89.6256 547.776 69.12 594.581C59.2704 617.065 53.9597 640.363 45.3063 663.049C40.3469 676.053 34.8423 688.944 23.808 700.071C13.4362 710.531 5.15138 711.207 -8.06782 702.899C-12.2861 700.248 -16.1318 697.19 -21.4982 695.668C-21.5001 647.079 -21.5001 598.486 -21.5001 549.895C-19.0982 546.653 -18.647 543.049 -17.8176 539.502C-11.2877 511.591 -5.4547 483.598 -0.963814 455.478C1.69154 438.844 6.3629 422.187 2.06018 405.316C-0.575976 394.979 -5.37022 385.723 -21.5193 382.948C-21.4867 375.243 -21.4521 367.538 -21.4195 359.832C7.36514 361.267 20.9837 370.347 24.6912 391.281C27.049 404.591 23.4029 417.718 20.6266 430.786C13.1424 466.02 6.06146 501.271 5.39906 537.025C4.9517 561.125 4.5005 585.224 4.02242 609.324C3.74402 623.308 2.63042 637.286 3.71138 651.279C4.1453 656.876 5.3453 662.337 8.8493 667.359C12.5434 672.653 17.2243 672.862 22.2048 668.033C25.5917 664.748 28.0512 661.142 29.9347 657.202C39.8381 636.474 43.3709 614.519 53.2877 593.773C74.6938 548.998 107.752 510.517 161.639 482.666C220.917 452.028 281.533 448.146 344.193 476.787C357.88 483.044 371.389 489.513 384.862 496.016C419.28 512.632 454.353 528.341 493.043 539.243C535.486 551.204 576.515 549.579 614.982 531.35C664.272 507.991 699.679 475.931 721.688 436.141C732.038 417.426 733.38 398.2 724.447 378.831C716.951 362.579 712.051 345.832 706.89 329.135C700.339 307.939 684.841 291.214 660.276 278.939C647.217 272.414 634.107 265.92 621.456 258.987C607.686 251.439 597.537 241.787 592.754 229.449C583.446 205.44 601.377 188.022 635.226 187.66C655.741 187.441 675.928 189.89 696.3 190.783C749.654 193.125 801.99 186.805 854.496 181.453C886.737 178.166 918.991 174.808 951.834 177.603C982.201 180.189 1000.91 190.663 1006.3 210.131C1007.93 215.998 1008.62 222.076 1008.79 228.071C1009.35 248.624 1005.05 268.872 1000.98 289.13C990.528 341.101 970.047 390.532 932.769 435.854C918.171 453.601 902.924 471.121 891.347 490.102C879.815 509.007 872.156 528.38 876.136 549.563C879.679 568.418 895.647 583.67 917.562 586.878C933.408 589.2 948.342 586.014 962.58 581.218C998.483 569.126 1031.33 552.623 1068.18 541.899C1087.61 536.246 1095.42 525.256 1095.45 510.638C1095.46 506.545 1095.2 502.445 1094.81 498.361C1093.4 483.395 1093.54 468.5 1097.75 453.729C1104.58 429.797 1125.46 417.013 1158.78 416.478C1165.04 416.378 1171.31 416.224 1177.57 416.314C1213.28 416.827 1235.59 404.174 1247.13 379.718C1256.18 360.52 1262.11 340.798 1267.98 321.039C1281.69 274.901 1295.4 228.758 1321.57 185.277C1349.45 138.955 1385.95 96.8101 1435.93 61.4127C1443.38 56.1402 1450.7 50.2884 1461.87 48.9836C1461.88 54.2913 1461.88 59.5989 1461.88 64.9066Z" fill="#008E9E"/>
<path d="M1461.88 48.9839C1450.71 50.2886 1443.38 56.1404 1435.94 61.4129C1385.96 96.8104 1349.46 138.955 1321.58 185.277C1295.41 228.758 1281.7 274.901 1267.99 321.039C1262.12 340.798 1256.19 360.52 1247.14 379.719C1235.6 404.176 1213.29 416.827 1177.58 416.314C1171.32 416.224 1165.05 416.379 1158.79 416.479C1125.47 417.013 1104.59 429.798 1097.76 453.729C1093.55 468.501 1093.41 483.396 1094.82 498.361C1095.21 502.446 1095.47 506.546 1095.46 510.638C1095.43 525.257 1087.62 536.246 1068.19 541.899C1031.34 552.623 998.492 569.127 962.59 581.218C948.351 586.014 933.418 589.2 917.572 586.879C895.657 583.669 879.688 568.417 876.146 549.563C872.166 528.381 879.826 509.007 891.356 490.102C902.934 471.121 918.179 453.601 932.778 435.855C970.059 390.534 990.54 341.101 1000.99 289.13C1005.06 268.872 1009.36 248.625 1008.8 228.072C1008.63 222.077 1007.94 215.998 1006.31 210.131C1000.92 190.664 982.212 180.188 951.844 177.603C919 174.807 886.746 178.166 854.506 181.453C801.999 186.806 749.664 193.126 696.309 190.783C675.938 189.889 655.751 187.44 635.236 187.66C601.386 188.023 583.457 205.441 592.763 229.45C597.546 241.787 607.695 251.439 621.466 258.987C634.116 265.921 647.226 272.414 660.286 278.939C684.851 291.214 700.351 307.938 706.9 329.135C712.061 345.831 716.961 362.58 724.456 378.831C733.39 398.202 732.048 417.428 721.697 436.141C699.688 475.931 664.282 507.991 614.991 531.35C576.524 549.58 535.496 551.204 493.052 539.243C454.362 528.341 419.29 512.632 384.872 496.016C371.399 489.512 357.89 483.043 344.202 476.788C281.543 448.146 220.927 452.028 161.649 482.666C107.76 510.517 74.7033 548.998 53.2972 593.774C43.3785 614.519 39.8457 636.474 29.9442 657.203C28.0626 661.142 25.6012 664.749 22.2143 668.033C17.2338 672.863 12.5529 672.655 8.8588 667.36C5.3548 662.336 4.15288 656.876 3.72088 651.279C2.63992 637.287 3.75352 623.308 4.03192 609.324C4.51192 585.225 4.96312 561.125 5.40856 537.025C6.07096 501.272 13.1519 466.02 20.6361 430.786C23.4124 417.72 27.0585 404.591 24.7007 391.282C20.9932 370.349 7.37464 361.268 -21.4119 359.834C-21.435 353.585 -21.458 347.337 -21.4811 341.087C-15.8804 341.191 -10.274 341.204 -4.68104 341.416C23.0476 342.465 40.9266 351.128 46.4313 366.429C49.1308 373.934 49.6012 381.568 48.4185 389.368C44.6841 414.008 35.4469 437.902 30.4108 462.369C25.6319 485.59 24.43 508.889 26.0313 532.265C26.5036 539.175 27.7957 546.183 31.6607 552.738C36.0057 560.107 40.3621 561.027 48.5145 555.367C53.4873 551.916 57.8783 547.93 61.9218 543.861C89.7906 515.808 120.705 490.118 161.134 471.14C220.055 443.479 280.032 440.617 341.57 465.906C356.463 472.027 370.998 478.632 385.461 485.288C418.873 500.664 452.373 515.886 489.746 525.794C523.313 534.692 556.838 537.168 590.141 525.216C626.515 512.16 653.583 491.981 673.45 466.401C688.063 447.586 690.682 428.266 678.04 408.224C669.957 395.407 668.674 381.729 669.431 367.849C669.719 362.549 669.876 357.242 669.94 351.938C670.253 325.882 656.502 305.166 626.479 290.58C619.618 287.246 613.169 283.455 606.252 280.191C573.022 264.505 560.264 241.631 561.769 213.518C563.165 187.43 581.05 171.538 613.21 168.21C623.514 167.144 633.59 168.753 643.607 169.952C666.603 172.703 689.405 176.605 712.685 177.714C762.57 180.092 811.791 174.682 861.078 170.181C898.6 166.753 936.058 162.956 974.118 166.154C1003.75 168.646 1022.27 179.233 1026.19 198.246C1028.65 210.207 1027.85 222.38 1025.96 234.337C1022.17 258.415 1016.64 282.318 1010.92 306.2C1001.18 346.869 985.507 385.992 958.33 422.467C940.395 446.537 918.791 469.097 903.252 494.138C893.946 509.134 886.675 524.638 888.288 541.385C890.227 561.533 905.357 579.992 940.289 575.84C948.077 574.915 955.526 573.091 962.692 570.623C991.369 560.738 1017.29 547.49 1043.93 535.115C1064.61 525.512 1073.78 511.76 1074.43 493.922C1075.03 477.353 1075.05 460.651 1080.15 444.33C1087.39 421.139 1102.67 403.147 1137.42 398.414C1146.12 397.229 1155.07 396.6 1163.93 396.468C1196.05 395.99 1219.46 385.996 1232.21 363.908C1234.38 360.149 1236.6 356.397 1238.5 352.562C1251.61 326.101 1258.92 298.501 1267.92 271.246C1283.79 223.191 1304.53 176.524 1339.22 133.733C1365.72 101.04 1395.69 70.3171 1435.93 45.7107C1443.65 40.9879 1451.14 35.6381 1461.88 34.5161V48.9839Z" fill="#F5F5F5"/>
<path d="M1461.88 34.5105C1451.14 35.6325 1443.65 40.9837 1435.93 45.7051C1395.69 70.3101 1365.72 101.034 1339.22 133.728C1304.53 176.518 1283.79 223.187 1267.92 271.24C1258.92 298.495 1251.61 326.094 1238.5 352.556C1236.6 356.39 1234.38 360.142 1232.21 363.903C1219.46 385.991 1196.05 395.985 1163.93 396.463C1155.07 396.595 1146.12 397.222 1137.42 398.409C1102.67 403.141 1087.39 421.134 1080.15 444.324C1075.05 460.645 1075.03 477.348 1074.43 493.917C1073.78 511.755 1064.61 525.507 1043.93 535.11C1017.29 547.484 991.367 560.733 962.692 570.617C955.526 573.087 948.077 574.909 940.289 575.835C905.357 579.987 890.227 561.527 888.288 541.379C886.675 524.632 893.946 509.128 903.253 494.132C918.791 469.092 940.395 446.533 958.33 422.461C985.505 385.988 1001.18 346.865 1010.92 306.195C1016.64 282.312 1022.17 258.41 1025.96 234.331C1027.85 222.375 1028.65 210.201 1026.19 198.241C1022.27 179.229 1003.75 168.64 974.118 166.149C936.056 162.95 898.6 166.748 861.078 170.175C811.791 174.677 762.57 180.086 712.685 177.709C689.403 176.599 666.603 172.696 643.607 169.946C633.589 168.748 623.514 167.138 613.21 168.204C581.05 171.532 563.165 187.424 561.769 213.513C560.266 241.624 573.022 264.498 606.252 280.185C613.169 283.45 619.617 287.242 626.479 290.574C656.502 305.16 670.253 325.877 669.94 351.932C669.876 357.237 669.719 362.543 669.431 367.844C668.676 381.722 669.957 395.401 678.04 408.218C690.682 428.261 688.063 447.581 673.45 466.396C653.581 491.975 626.513 512.154 590.141 525.21C556.838 537.164 523.313 534.688 489.746 525.788C452.373 515.88 418.875 500.659 385.461 485.283C370.998 478.627 356.461 472.021 341.57 465.901C280.032 440.61 220.055 443.474 161.134 471.134C120.705 490.114 89.7888 515.804 61.9219 543.855C57.8784 547.925 53.4874 551.91 48.5146 555.362C40.3603 561.021 36.0039 560.103 31.6608 552.733C27.7959 546.178 26.5056 539.169 26.0314 532.26C24.432 508.884 25.632 485.586 30.4109 462.363C35.4471 437.895 44.6842 414.003 48.4186 389.362C49.6013 381.562 49.1309 373.929 46.4314 366.424C40.9267 351.122 23.0477 342.461 -4.68097 341.411C-10.2739 341.198 -15.8803 341.187 -21.4809 341.082C-21.4982 334.939 -21.5155 328.796 -21.5328 322.655C-5.07842 322.911 11.3664 322.108 27.8304 323.737C60.6547 326.989 76.4199 339.413 76.7463 363.683C76.9882 381.691 70.1472 398.882 64.2259 416.14C58.2221 433.64 52.4179 451.136 50.3962 469.211C49.5552 476.73 49.6685 484.139 51.2621 491.555C53.9789 504.188 63.0682 507.548 77.3069 500.33C94.8883 491.418 111.475 481.464 128.899 472.377C156.639 457.909 186.236 446.055 220.13 441.32C260.59 435.668 299.025 440.987 335.939 453.673C371.376 465.852 403.348 482.534 438.09 495.615C462.67 504.871 487.736 512.863 514.973 517.345C570.814 526.537 618.528 495.826 632.867 472.228C639.951 460.569 640.172 448.922 629.654 438.546C614.104 423.205 613.592 407.158 621.734 389.867C627.318 378.01 631.709 365.841 632.229 353.179C633.007 334.312 622.199 319.533 601.471 308.686C590.763 303.082 579.567 297.956 568.368 292.881C552.165 285.539 542.072 275.334 540.868 261.243C539.061 240.078 537.333 218.796 543.491 197.878C554.65 159.961 586.915 145.312 638.346 153.909C662.289 157.911 685.922 162.812 710.369 165.336C739.663 168.36 768.824 167.742 798.01 165.561C830.655 163.123 863.268 160.402 895.836 157.45C916.435 155.583 937.139 155.017 957.796 153.859C976.009 152.837 994.049 153.794 1011.84 156.345C1037.62 160.041 1049.66 170.94 1050.16 191.008C1050.55 206.702 1046.15 222.068 1042.46 237.448C1034.31 271.462 1026.14 305.472 1017.85 339.468C1008.65 377.203 986.673 411.081 959.457 443.446C942.432 463.692 924.229 483.521 912.649 505.942C907.054 516.777 902.531 527.96 905.023 539.696C909.085 558.823 926.185 567.47 950.867 560.783C985.866 551.3 1016.54 536.114 1040.3 514.816C1054.72 501.883 1054.83 485.283 1056.31 469.423C1057.57 455.73 1058.93 442.049 1063.64 428.709C1075.07 396.329 1100.18 380.766 1145.59 377.627C1152.79 377.129 1159.98 376.427 1167.13 375.582C1193.27 372.492 1209.77 360.693 1220.71 343.788C1236.15 319.954 1243.68 294.334 1252.09 268.957C1268.45 219.598 1287.84 171.084 1323.41 126.945C1353.29 89.8858 1389.56 56.7576 1436.8 30.6327C1444.27 26.5019 1451.56 21.6386 1461.88 21.4783V34.5105Z" fill="#008E9E"/>
<path d="M1242.29 713.367H1230.42C1225.42 703.865 1217.83 695.384 1210.21 686.994C1183.75 657.861 1156.66 629.046 1121.11 605.216C1102.7 592.874 1081.23 586.648 1055.97 588.992C1040.13 590.463 1025.52 594.882 1011.11 599.686C992.857 605.772 975.068 612.649 955.816 617.051C924.682 624.171 896.001 621.763 870.906 605.428C859.125 597.76 850.984 588.181 844.408 577.823C829.951 555.057 826.748 530.62 824.87 506.039C824.227 497.617 824.314 489.166 822.589 480.8C820.629 471.296 814.299 468.697 802.769 472.938C797.499 474.877 792.472 477.247 787.653 479.75C752.947 497.773 725.19 521.126 696.699 543.858C663.224 570.565 626.306 593.816 581.151 609.535C557.297 617.839 535.048 628.18 514.147 640.063C504.522 645.536 494.594 650.763 483.141 654.101C466.996 658.807 451.972 657.108 438.743 649.007C425.447 640.863 420.948 630.133 424.285 617.808C425.687 612.63 427.972 607.551 430.301 602.539C436.549 589.103 432.981 577.039 419.654 567.099C385.565 541.677 347.727 519.566 305.013 502.419C275.036 490.385 243.846 490.798 212.87 501.409C181.659 512.101 156.924 528.423 136.658 548.512C111.788 573.163 98.4018 601.618 87.0738 630.659C76.1606 658.639 65.783 686.737 49.3458 713.362H41.4316C45.4329 705.771 49.4764 698.193 53.4239 690.587C67.653 663.177 75.0009 634.3 86.9145 606.391C103.778 566.894 130.259 532.201 176.467 506.81C228.365 478.29 275.681 476.089 328.856 500.935C348.526 510.128 367.213 520.472 386.052 530.587C410.461 543.691 436.312 555.494 457.786 571.32C485.293 591.593 480.05 599.942 467.681 615.181C463.597 620.214 459.479 626.107 466.777 631.034C474.102 635.979 482.325 632.745 489.761 630.046C492.372 629.098 494.813 627.7 496.886 626.183C516.774 611.631 541.693 603.519 567.533 596.663C609.252 585.594 644.35 567.321 675.254 544.347C702.553 524.053 726.918 501.797 753.755 481.223C806.676 440.655 832.55 392.08 837.366 336.626C839.169 315.871 837.444 295.155 838.474 274.439C839.718 249.381 856.608 234.69 890.035 229.173C917.94 224.568 939.592 232.413 948.298 250.483C951.147 256.396 952.908 262.541 953.29 268.847C956.427 320.532 936.403 367.693 901.123 411.882C884.709 432.441 864.86 451.627 853.567 474.24C836.966 507.476 834.323 540.981 852.839 574.268C869.245 603.762 901.469 617.223 941.735 611.963C957.688 609.879 972.313 604.807 986.855 599.738C1004.33 593.647 1021.42 586.966 1039.89 582.467C1071.74 574.708 1100.16 578.855 1125.28 595.111C1152.7 612.85 1172.98 634.91 1194.02 656.45C1211.78 674.636 1229.27 693.004 1242.29 713.367ZM925.438 305.423C925.355 297.768 923.908 290.404 919.914 283.405C914.202 273.394 901.229 272.2 892.368 280.95C887.823 285.436 885.168 290.644 883.075 296.025C877.557 310.206 874.56 324.743 871.826 339.29C868.777 355.506 866.269 371.779 863.862 388.053C863.303 391.835 863.32 396.428 868.952 398.182C874.047 399.77 877.014 396.21 880.076 393.658C910.393 368.382 921.402 337.855 925.438 305.423Z" fill="#F5F5F5"/>
<path d="M1242.29 713.367C1229.27 693.004 1211.78 674.634 1194.02 656.455C1172.99 634.915 1152.7 612.855 1125.28 595.115C1100.16 578.857 1071.74 574.711 1039.89 582.471C1021.42 586.97 1004.33 593.651 986.857 599.742C972.315 604.811 957.69 609.884 941.737 611.967C901.471 617.226 869.247 603.765 852.841 574.272C834.324 540.984 836.968 507.48 853.569 474.244C864.862 451.631 884.713 432.445 901.125 411.886C936.405 367.697 956.429 320.537 953.292 268.851C952.909 262.545 951.149 256.4 948.299 250.488C939.594 232.418 917.942 224.571 890.037 229.177C856.61 234.692 839.72 249.385 838.475 274.443C837.446 295.159 839.171 315.875 837.368 336.63C832.552 392.084 806.678 440.66 753.757 481.228C726.92 501.802 702.555 524.057 675.256 544.351C644.352 567.325 609.254 585.598 567.535 596.667C541.695 603.523 516.774 611.636 496.888 626.188C494.815 627.705 492.374 629.101 489.763 630.05C482.325 632.749 474.102 635.983 466.779 631.038C459.483 626.113 463.599 620.218 467.683 615.186C480.052 599.946 485.295 591.597 457.788 571.324C436.314 555.498 410.463 543.695 386.054 530.591C367.215 520.476 348.53 510.132 328.858 500.94C275.683 476.093 228.367 478.296 176.469 506.814C130.262 532.205 103.78 566.898 86.9165 606.395C75.0009 634.304 67.655 663.181 53.4259 690.591C49.4784 698.196 45.4329 705.776 41.4336 713.367H29.5641C48.0192 689.713 56.6803 663.608 65.2262 637.454C73.8586 611.038 83.6851 584.888 100.861 560.596C123.744 528.236 156.472 502.86 200.901 485.966C241.375 470.574 281.533 470.993 321.454 487.348C349.127 498.684 373.914 513.124 400.166 525.985C427.548 539.397 455.985 551.604 483.504 564.826C526.842 585.648 569.585 581.942 612.407 564.835C639.898 553.853 662.884 538.644 683.879 521.815C717.467 494.888 750.465 467.536 774.415 435.285C811.803 384.938 816.215 333.052 785.969 279.884C781.665 272.317 777.254 264.756 773.723 256.989C768.474 245.446 771.792 238.248 785.658 231.387C807.045 220.803 831.636 215.816 856.203 211.159C877.3 207.159 898.75 204.61 920.784 206.401C946.804 208.517 963.212 218.594 969.506 237.136C976.068 256.469 973.741 275.954 970.525 295.388C961.906 347.471 936.62 395.031 898.285 439.205C879.748 460.566 862.5 482.566 855.725 507.884C849.602 530.767 849.59 553.35 863.963 574.893C881.56 601.265 912.361 611.022 950.665 602.532C972.2 597.758 991.515 589.428 1011.56 582.259C1029.31 575.908 1047.3 569.943 1067.32 568.629C1102.37 566.329 1129.98 577.172 1150.81 596.615C1189.85 633.057 1224.48 671.788 1257.44 711.304C1257.92 711.879 1257.9 712.676 1258.11 713.369C1252.84 713.367 1247.56 713.367 1242.29 713.367Z" fill="#008E9E"/>
<path d="M1461.88 664.154C1461.88 679.353 1461.72 694.551 1462.01 709.747C1462.07 712.862 1461.19 713.499 1456.93 713.461C1434.18 713.261 1411.43 713.366 1388.68 713.366C1395.2 707.18 1405.01 704.637 1414.04 701.3C1430.56 695.197 1432.63 689.896 1422.3 678.555C1415.11 670.673 1406.25 663.878 1396.1 658.021C1369.99 642.954 1341.23 630.462 1316.5 614.035C1297.47 601.398 1277.79 589.208 1264.78 572.599C1261.01 567.786 1256.91 562.404 1262.49 557.098C1267.52 552.32 1275.27 553.226 1282.57 553.625C1299.02 554.525 1314.77 558.774 1331.36 558.997C1353.65 559.298 1362.58 553.088 1363.62 536.779C1364.52 522.938 1361.57 509.373 1358.24 495.86C1350.76 465.489 1344.72 434.971 1343.7 404.096C1342.16 357.563 1349.87 311.761 1367.27 266.964C1382.06 228.869 1403.48 193.034 1438.11 162.082C1444.72 156.173 1451.04 149.761 1461.88 147.411V180.702C1454.63 179.719 1451.24 183.879 1447.45 186.921C1430.65 200.425 1418.87 216.288 1408.6 232.762C1386.97 267.425 1375.43 304.1 1369.3 341.734C1364.61 370.506 1363.86 399.386 1367.71 428.27C1371.84 459.229 1381.2 489.423 1392.46 519.36C1402.74 546.708 1411.37 574.099 1396.7 602.267C1393.56 608.302 1395.87 614.765 1400.28 620.393C1411.49 634.708 1425.35 647.525 1442.39 658.367C1447.83 661.825 1453.88 664.955 1461.88 664.154Z" fill="white"/>
<path d="M1461.88 147.411C1451.04 149.762 1444.72 156.173 1438.11 162.082C1403.48 193.034 1382.07 228.867 1367.27 266.964C1349.88 311.762 1342.16 357.563 1343.7 404.096C1344.72 434.971 1350.76 465.489 1358.25 495.86C1361.58 509.373 1364.52 522.937 1363.63 536.779C1362.58 553.088 1353.66 559.298 1331.36 558.998C1314.78 558.774 1299.03 554.525 1282.57 553.625C1275.27 553.226 1267.53 552.322 1262.5 557.098C1256.91 562.404 1261.02 567.785 1264.78 572.599C1277.79 589.208 1297.47 601.398 1316.5 614.035C1341.23 630.462 1369.99 642.954 1396.11 658.021C1406.26 663.878 1415.11 670.673 1422.3 678.555C1432.64 689.896 1430.56 695.197 1414.04 701.3C1405.01 704.635 1395.21 707.18 1388.68 713.367H1362.97C1363.91 711.58 1364.69 709.738 1365.82 708.014C1379.66 686.81 1378.46 680.43 1355.65 664.012C1337.34 650.829 1318.27 638.21 1299.85 625.111C1275.77 607.998 1249.72 592.296 1229.26 572.594C1219.23 562.934 1210.16 552.88 1208.22 540.407C1206.18 527.354 1214.4 520.082 1232.1 519.263C1242.98 518.759 1253.82 519.188 1264.64 520.213C1275.41 521.234 1286.15 522.557 1297.08 522.174C1314.3 521.573 1322.28 516.82 1326.16 504.642C1328.48 497.328 1329.13 489.904 1328.52 482.39C1326.87 462.193 1324.76 442.003 1323.93 421.786C1321.88 371.941 1328.62 322.705 1345.31 274.299C1363 222.958 1391.28 175.394 1439.57 135.141C1445.79 129.951 1451.64 124.196 1461.88 122.803V147.411ZM49.3459 713.367C65.7811 686.74 76.1588 658.644 87.0739 630.663C98.402 601.62 111.786 573.167 136.658 548.516C156.924 528.427 181.659 512.105 212.87 501.413C243.844 490.804 275.034 490.389 305.013 502.423C347.727 519.571 385.565 541.681 419.654 567.103C432.983 577.042 436.548 589.107 430.301 602.543C427.97 607.555 425.687 612.632 424.285 617.812C420.948 630.136 425.445 640.868 438.743 649.011C451.97 657.113 466.996 658.811 483.141 654.105C494.594 650.767 504.522 645.54 514.147 640.068C535.048 628.184 557.297 617.844 581.151 609.539C626.306 593.819 663.226 570.569 696.699 543.862C725.192 521.13 752.947 497.779 787.653 479.754C792.472 477.251 797.499 474.881 802.769 472.942C814.299 468.701 820.631 471.3 822.589 480.804C824.314 489.169 824.227 497.621 824.87 506.043C826.748 530.625 829.951 555.061 844.408 577.827C850.986 588.185 859.127 597.764 870.906 605.432C895.999 621.767 924.682 624.174 955.816 617.056C975.068 612.653 992.857 605.777 1011.11 599.69C1025.52 594.886 1040.13 590.467 1055.97 588.996C1081.23 586.651 1102.7 592.878 1121.11 605.22C1156.66 629.049 1183.75 657.865 1210.21 686.998C1217.83 695.387 1225.42 703.869 1230.42 713.371H1220.52C1219.83 712.034 1219.37 710.601 1218.41 709.374C1193.29 677.201 1163.38 647.632 1127.86 621.196C1114.12 610.968 1098.82 602.37 1079.05 598.96C1057.56 595.253 1038.05 600.205 1018.69 605.885C998.245 611.883 978.86 619.775 957.673 624.437C918.757 633.001 884.926 627.433 857.247 604.871C840.357 591.104 830.805 574.542 822.91 557.323C816.948 544.32 813.253 530.743 805.225 518.274C798.405 507.681 788.012 505.125 773.545 509.973C766.639 512.287 760.191 515.199 754.147 518.593C738.125 527.59 724.322 538.291 710.342 548.87C681.708 570.539 653.969 593.094 617.637 608.189C576.403 625.32 534.72 641.746 495.761 661.765C469.872 675.069 443.568 672.265 419.704 656.814C397.688 642.56 391.745 624.701 398.022 604.327C403.5 586.551 397.2 571.501 380.133 558.527C358.539 542.11 334.702 527.73 307.993 515.982C274.161 501.101 240.027 501.315 205.726 515.187C183.771 524.064 165.527 536.119 149.777 550.273C121.945 575.286 107.568 604.986 94.8538 635.231C83.7485 661.648 72.8832 688.12 57.2602 713.372C54.6202 713.367 51.984 713.367 49.3459 713.367Z" fill="#008E9E"/>
<path d="M1461.88 122.804C1451.64 124.198 1445.79 129.952 1439.56 135.142C1391.27 175.396 1363 222.959 1345.3 274.301C1328.62 322.707 1321.87 371.942 1323.92 421.787C1324.75 442.004 1326.86 462.194 1328.51 482.392C1329.13 489.905 1328.48 497.329 1326.15 504.643C1322.28 516.822 1314.3 521.574 1297.08 522.176C1286.15 522.558 1275.4 521.235 1264.63 520.214C1253.82 519.189 1242.97 518.761 1232.1 519.264C1214.4 520.084 1206.18 527.355 1208.21 540.409C1210.16 552.881 1219.22 562.936 1229.25 572.595C1249.72 592.299 1275.77 608.001 1299.84 625.112C1318.27 638.21 1337.34 650.83 1355.65 664.013C1378.45 680.431 1379.66 686.811 1365.82 708.015C1364.69 709.739 1363.9 711.581 1362.96 713.368H1339.22C1345.29 695.863 1338.4 680.643 1324.24 666.544C1303.06 645.461 1278.16 626.905 1252.17 609.071C1233.4 596.198 1214.75 583.205 1199.42 568.014C1182.35 551.097 1168.98 532.929 1169.58 511.07C1169.95 497.893 1179.54 490.566 1197.42 489.254C1208.27 488.459 1219.15 489.021 1229.98 489.898C1241.14 490.802 1252.33 491.258 1263.53 490.587C1279.64 489.623 1290.41 483.694 1295.54 472.259C1299.7 462.976 1300.99 453.361 1301.61 443.769C1303.82 409.609 1305.34 375.441 1311.41 341.461C1319.33 297.181 1332.28 253.849 1355.36 212.392C1375.64 175.96 1402.72 142.514 1439.49 113.57C1445.9 108.522 1451.83 102.762 1461.88 101.096V122.804Z" fill="#F5F5F5"/>
<path d="M1461.88 664.154C1453.88 664.957 1447.83 661.825 1442.4 658.368C1425.36 647.526 1411.5 634.709 1400.28 620.395C1395.87 614.768 1393.56 608.303 1396.71 602.269C1411.38 574.102 1402.75 546.709 1392.46 519.361C1381.2 489.424 1371.84 459.231 1367.71 428.272C1363.86 399.388 1364.62 370.508 1369.3 341.735C1375.44 304.101 1386.97 267.428 1408.6 232.763C1418.88 216.289 1430.66 200.427 1447.46 186.922C1451.24 183.88 1454.63 179.719 1461.88 180.703V229.918C1454.62 229.246 1451.41 233.434 1447.86 236.637C1437.61 245.891 1430.44 256.539 1424.64 267.558C1391.36 330.746 1384.26 395.761 1401.44 462.096C1409.5 493.246 1423.64 522.998 1447.18 549.963C1450.65 553.94 1454.1 558.314 1461.88 558.49V664.154Z" fill="#008E9E"/>
<path d="M57.2582 713.367C72.8813 688.115 83.7466 661.643 94.8518 635.225C107.566 604.981 121.943 575.281 149.775 550.268C165.525 536.114 183.769 524.06 205.724 515.181C240.025 501.311 274.159 501.097 307.991 515.977C334.7 527.724 358.537 542.105 380.131 558.521C397.198 571.496 403.498 586.545 398.02 604.321C391.743 624.696 397.686 642.555 419.702 656.809C443.568 672.259 469.87 675.063 495.759 661.759C534.718 641.741 576.403 625.313 617.635 608.184C653.967 593.09 681.704 570.535 710.34 548.865C724.32 538.286 738.123 527.585 754.145 518.588C760.189 515.194 766.637 512.282 773.543 509.968C788.012 505.118 798.405 507.676 805.223 518.269C813.251 530.737 816.947 544.315 822.908 557.317C830.803 574.537 840.355 591.098 857.245 604.866C884.924 627.428 918.755 632.995 957.671 624.431C978.858 619.769 998.244 611.877 1018.69 605.879C1038.05 600.199 1057.55 595.249 1079.05 598.955C1098.82 602.363 1114.12 610.962 1127.86 621.191C1163.38 647.626 1193.29 677.196 1218.41 709.368C1219.37 710.594 1219.83 712.028 1220.52 713.365H1212.61C1187.58 681.758 1157.63 652.955 1121.78 627.461C1093.48 607.339 1061.33 601.583 1024.29 612.892C1004.96 618.796 985.828 625.143 966.113 630.279C929.307 639.868 894.411 637.489 863.322 618.848C845.411 608.109 833.412 594.035 823.192 579.085C815.119 567.276 809.028 554.763 799.784 543.374C789.274 530.429 775.206 527.665 757.215 534.918C753.481 536.424 749.879 538.149 746.433 539.99C727.966 549.852 712.403 562.028 696.701 574.035C664.717 598.491 627.894 617.906 586.055 632.309C561.65 640.71 538.295 650.44 516.424 662.05C508.184 666.424 499.713 670.588 491.096 674.553C481.448 678.991 470.69 681.521 459.327 681.166C422.84 680.028 382.545 655.732 373.668 629.883C370.18 619.723 370.287 609.344 370.666 598.991C371.167 585.262 366.72 572.734 354.839 561.893C337.72 546.273 317.224 533.566 292.788 524.508C268.07 515.347 242.851 515.295 217.624 523.513C195.585 530.693 177.352 541.583 161.491 554.749C137.616 574.568 122.742 598.004 110.82 622.569C96.0691 652.961 83.4144 683.914 65.1725 713.367H57.2582Z" fill="white"/>
<path d="M1461.88 101.093C1451.84 102.76 1445.9 108.519 1439.49 113.567C1402.73 142.512 1375.65 175.957 1355.36 212.389C1332.28 253.846 1319.33 297.178 1311.42 341.458C1305.34 375.439 1303.83 409.607 1301.61 443.766C1300.99 453.358 1299.7 462.973 1295.54 472.256C1290.41 483.691 1279.64 489.62 1263.53 490.584C1252.33 491.255 1241.14 490.799 1229.98 489.895C1219.15 489.018 1208.28 488.456 1197.42 489.251C1179.55 490.563 1169.95 497.89 1169.58 511.067C1168.98 532.926 1182.35 551.094 1199.43 568.011C1214.76 583.202 1233.4 596.196 1252.17 609.068C1278.16 626.902 1303.06 645.458 1324.24 666.541C1338.4 680.64 1345.29 695.86 1339.22 713.365H1313.5C1317.47 692.219 1305.1 674.784 1289.61 658.22C1267.44 634.508 1238.15 615.644 1209.2 596.673C1171.2 571.761 1146.2 541.923 1140.24 504.325C1139.25 498.068 1138.84 491.809 1140.28 485.582C1143.64 471.035 1154.6 463.408 1174.63 462.047C1181.15 461.604 1187.79 461.917 1194.36 462.12C1204.23 462.423 1214.09 463.232 1223.96 463.301C1253.75 463.506 1267.55 456.047 1275.66 435.091C1283.77 414.122 1285.82 392.396 1289.65 370.907C1300.77 308.44 1315.97 246.736 1352.7 189.037C1375.12 153.828 1403.71 121.627 1440.62 93.5609C1446.74 88.9098 1452.68 83.9002 1461.88 82.2749V101.093ZM90.8909 713.367H80.999C89.0611 700.204 97.2077 687.067 105.166 673.871C120.547 648.36 132.576 621.695 153.736 598.179C169.774 580.356 189.347 565.325 216.67 556.685C243.767 548.117 271.188 552.207 292.059 567.459C306.119 577.734 312.943 590.642 318.196 604.217C321.602 613.018 324.718 621.895 328.694 630.557C345.224 666.554 383.576 684.958 429.46 697.511C456.002 704.772 479.835 702.111 501.36 688.816C529.776 671.265 561.295 657.635 595.705 647.339C639.498 634.234 677.827 614.965 712.205 591.26C723.446 583.508 735.066 575.93 749.05 570.748C764.619 564.977 776.171 566.102 788.763 574.819C792.566 577.453 795.901 580.491 799.114 583.534C810.785 594.586 820.679 606.619 833.482 617.049C868.17 645.311 915.863 660.179 970.289 645.825C989.144 640.852 1007.65 635.168 1026.56 630.324C1052.87 623.584 1078.57 624.249 1101.79 636.614C1140.41 657.188 1170.35 683.533 1194.81 713.368H1186.89C1166.94 691.661 1143.73 672.124 1116.46 655.088C1087.7 637.122 1056.22 631.38 1020.3 641.641C1009.89 644.615 999.262 647.21 989.005 650.44C938.964 666.191 892.186 662.573 848.824 638.113C834.659 630.123 822.584 620.563 811.146 610.565C803.328 603.731 796.053 596.55 786.589 590.806C774.056 583.198 760.633 582.202 746.175 587.638C737.023 591.078 728.83 595.528 721.037 600.362C685.92 622.144 648.413 641.25 605.107 653.25C566.509 663.946 531.323 678.318 500.805 698.902C486.271 708.704 468.275 714.683 448.224 711.547C408.096 705.271 371.149 693.539 340.737 672.678C320.778 658.988 309.842 641.078 298.902 623.221C291.491 611.125 284.417 598.855 271.031 589.381C255.69 578.523 237.888 575.244 217.369 579.847C204.163 582.81 192.983 588.199 182.755 594.793C174.559 600.077 167.243 606.003 161.186 612.62C132.313 644.159 113.635 679.526 90.8909 713.367Z" fill="#008E9E"/>
<path d="M65.1725 713.367C83.4163 683.915 96.0691 652.962 110.82 622.568C122.742 598.006 137.616 574.568 161.491 554.749C177.352 541.583 195.585 530.693 217.624 523.513C242.851 515.295 268.068 515.347 292.788 524.508C317.226 533.566 337.722 546.273 354.839 561.893C366.72 572.734 371.167 585.262 370.666 598.991C370.287 609.344 370.18 619.723 373.669 629.882C382.545 655.733 422.84 680.029 459.327 681.166C470.69 681.521 481.448 678.991 491.096 674.553C499.715 670.588 508.186 666.424 516.424 662.05C538.295 650.438 561.648 640.71 586.055 632.309C627.892 617.908 664.717 598.491 696.701 574.035C712.403 562.028 727.966 549.852 746.433 539.99C749.879 538.149 753.481 536.424 757.215 534.918C775.206 527.665 789.274 530.429 799.784 543.374C809.03 554.761 815.121 567.276 823.192 579.085C833.413 594.035 845.411 608.109 863.322 618.848C894.411 637.488 929.307 639.868 966.113 630.279C985.828 625.143 1004.96 618.796 1024.29 612.892C1061.33 601.584 1093.48 607.34 1121.78 627.461C1157.63 652.955 1187.58 681.758 1212.61 713.365H1202.72C1202.39 712.46 1202.33 711.438 1201.69 710.667C1178.85 682.849 1151.27 657.824 1118.85 635.681C1089.03 615.322 1055.62 610.987 1018.1 623.271C1002.27 628.455 986.066 633.068 969.796 637.476C932.473 647.585 897.07 645.135 864.25 627.977C844.264 617.531 830.371 603.308 817.999 588.109C809.937 578.204 803.105 567.687 792.668 558.916C780.785 548.931 769.189 547.322 753.089 553.271C748.418 554.998 743.925 557.094 739.747 559.404C724.731 567.708 711.402 577.406 697.953 586.991C671.85 605.592 643.169 621.694 610.136 633.068C570.236 646.808 531.441 661.661 496.535 681.715C481.932 690.104 464.437 694.203 445.553 690.134C397.626 679.805 360.582 660.754 348.822 622.737C345.567 612.215 344.63 601.32 342.031 590.673C330.146 542.02 254.701 518.295 198.924 545.627C165.746 561.884 144.396 585.062 128.721 611.271C108.641 644.847 94.1222 680.058 73.081 713.364C70.4486 713.367 67.8106 713.367 65.1725 713.367Z" fill="#008E9E"/>
<path d="M73.0847 713.367C94.126 680.061 108.645 644.849 128.724 611.274C144.397 585.065 165.75 561.887 198.927 545.629C254.705 518.297 330.15 542.023 342.035 590.676C344.634 601.322 345.571 612.216 348.826 622.74C360.586 660.757 397.63 679.808 445.557 690.137C464.438 694.206 481.935 690.107 496.539 681.718C531.444 661.664 570.24 646.811 610.14 633.071C643.173 621.697 671.856 605.595 697.956 586.994C711.406 577.409 724.735 567.711 739.751 559.407C743.929 557.097 748.422 555 753.093 553.274C769.19 547.325 780.789 548.934 792.672 558.919C803.109 567.69 809.939 578.205 818.003 588.112C830.373 603.311 844.268 617.534 864.253 627.98C897.074 645.138 932.477 647.588 969.8 637.479C986.072 633.071 1002.28 628.458 1018.11 623.274C1055.62 610.99 1089.04 615.325 1118.85 635.684C1151.27 657.827 1178.86 682.852 1201.7 710.67C1202.33 711.44 1202.39 712.463 1202.72 713.368H1194.81C1170.35 683.533 1140.42 657.188 1101.79 636.614C1078.57 624.247 1052.87 623.584 1026.56 630.324C1007.65 635.169 989.144 640.854 970.289 645.825C915.863 660.179 868.17 645.311 833.482 617.049C820.681 606.619 810.785 594.586 799.114 583.534C795.901 580.491 792.566 577.454 788.763 574.819C776.172 566.101 764.619 564.976 749.05 570.748C735.066 575.93 723.446 583.508 712.205 591.26C677.827 614.965 639.498 634.236 595.705 647.339C561.295 657.636 529.776 671.265 501.36 688.816C479.835 702.112 456.002 704.772 429.46 697.511C383.576 684.96 345.224 666.555 328.694 630.557C324.716 621.895 321.6 613.018 318.196 604.217C312.943 590.643 306.119 577.734 292.059 567.459C271.188 552.207 243.767 548.117 216.67 556.685C189.348 565.325 169.774 580.356 153.736 598.179C132.574 621.695 120.547 648.36 105.166 673.871C97.2076 687.067 89.061 700.204 80.9989 713.367H73.0847Z" fill="#F5F5F5"/>
<path d="M90.8909 713.366C113.635 679.525 132.313 644.159 161.186 612.62C167.243 606.003 174.559 600.077 182.755 594.793C192.985 588.199 204.165 582.81 217.369 579.847C237.888 575.244 255.69 578.523 271.031 589.381C284.417 598.856 291.491 611.125 298.902 623.221C309.844 641.078 320.778 658.988 340.737 672.678C371.149 693.538 408.094 705.269 448.224 711.547C468.275 714.684 486.271 708.706 500.805 698.902C531.323 678.316 566.509 663.944 605.107 653.25C648.413 641.25 685.92 622.144 721.037 600.362C728.83 595.527 737.025 591.078 746.175 587.638C760.633 582.202 774.054 583.198 786.589 590.805C796.053 596.55 803.328 603.731 811.146 610.565C822.584 620.563 834.659 630.123 848.824 638.113C892.186 662.572 938.964 666.191 989.005 650.44C999.262 647.211 1009.89 644.615 1020.3 641.641C1056.22 631.381 1087.7 637.122 1116.46 655.088C1143.73 672.123 1166.94 691.661 1186.89 713.368H1177C1156.6 692.064 1132.35 673.575 1102.67 659.064C1079.94 647.948 1055.58 645.195 1029.21 650.718C1015.9 653.506 1003.13 657.294 990.15 660.715C973.438 665.12 956.661 669.298 938.655 669.966C905.199 671.208 876.276 662.139 849.105 649.081C828.267 639.068 811.682 625.558 793.928 612.996C774.545 599.282 759.156 598.124 736.211 608.229C733.39 609.47 730.562 610.74 727.966 612.213C683.086 637.683 633.316 656.346 579.731 669.897C546.238 678.367 520.581 695.152 496.449 713.368H401.489C397.334 711.96 393.31 710.28 389.005 709.188C343.482 697.639 309.059 676.466 285.055 645.922C278.004 636.949 269.942 628.361 259.764 621.033C239.34 606.326 215.724 604.581 191.518 615.839C179.37 621.489 169.578 628.943 161.261 637.402C137.77 661.294 120 687.644 100.781 713.368C97.4842 713.367 94.1875 713.366 90.8909 713.366Z" fill="white"/>
<path d="M1461.88 558.489C1454.1 558.314 1450.65 553.94 1447.18 549.961C1423.64 522.997 1409.5 493.245 1401.44 462.095C1384.26 395.76 1391.36 330.743 1424.64 267.556C1430.44 256.537 1437.61 245.89 1447.86 236.636C1451.42 233.433 1454.62 229.244 1461.88 229.916V371.768C1458.14 373.074 1455.76 375.056 1454.38 378.057C1445.56 397.236 1444.14 416.768 1449.38 436.518C1450.93 442.387 1453.58 448.292 1461.88 451.377V558.489Z" fill="#F5F5F5"/>
<path d="M549.865 713.367H528.104C546.073 699.471 568.047 690.622 593.322 686.236C638.006 678.482 681.65 668.452 723.047 653.813C750.449 644.123 776.003 645.2 801.719 657.191C824.784 667.946 849.429 676.688 874.186 685.252C910.251 697.728 946.619 700.135 984.282 689.432C997.463 685.685 1011.04 682.629 1024.6 679.661C1039.86 676.32 1055.46 674.562 1071.4 676.716C1105.08 681.269 1130.8 695.384 1153.26 713.368H1133.48C1115.51 701.856 1094.4 695.72 1070.75 694.969C1035.81 693.86 1004.91 704.879 973.231 713.368H898.053C876.666 707.165 855.805 699.994 833.896 694.747C812.327 689.58 790.209 687.596 767.699 689.473C737.33 692.005 706.95 694.036 676.393 695.114C647.53 696.13 618.486 696.327 589.985 700.557C575.405 702.719 561.306 705.859 549.865 713.367Z" fill="#008E9E"/>
<path d="M1153.26 713.367C1130.8 695.382 1105.08 681.268 1071.4 676.715C1055.46 674.56 1039.86 676.317 1024.6 679.659C1011.04 682.629 997.463 685.684 984.282 689.431C946.621 700.135 910.251 697.726 874.186 685.251C849.429 676.687 824.782 667.946 801.719 657.19C776.003 645.198 750.447 644.121 723.047 653.811C681.65 668.452 638.006 678.481 593.322 686.235C568.047 690.622 546.073 699.471 528.104 713.365H512.277C530.928 697.572 553.3 685.661 580.322 678.685C596.436 674.524 612.635 670.536 628.792 666.464C665.512 657.211 698.548 642.622 731.491 628.018C754.708 617.726 775.386 619.345 795.786 632.122C817.315 645.606 839.668 658.329 865.313 667.601C893.908 677.94 923.299 684.867 955.709 680.07C977.739 676.809 998.41 670.357 1019.58 665.099C1051.02 657.287 1080.47 659.683 1108.14 673.28C1126.57 682.34 1143.3 692.818 1157.54 705.305C1160.35 707.772 1165.02 709.478 1165.13 713.364C1161.17 713.367 1157.22 713.367 1153.26 713.367Z" fill="#F5F5F5"/>
<path d="M1165.13 713.366C1165.02 709.48 1160.35 707.776 1157.54 705.307C1143.3 692.821 1126.57 682.343 1108.13 673.283C1080.46 659.685 1051.02 657.288 1019.58 665.101C998.41 670.36 977.737 676.81 955.707 680.072C923.299 684.87 893.906 677.942 865.311 667.604C839.664 658.331 817.311 645.608 795.784 632.125C775.384 619.349 754.706 617.73 731.489 628.021C698.546 642.625 665.51 657.214 628.79 666.466C612.632 670.538 596.435 674.527 580.32 678.687C553.3 685.664 530.928 697.574 512.275 713.368H496.449C520.581 695.152 546.238 678.365 579.731 669.897C633.316 656.346 683.086 637.683 727.966 612.213C730.562 610.74 733.39 609.471 736.211 608.229C759.156 598.124 774.547 599.282 793.928 612.996C811.682 625.559 828.267 639.069 849.105 649.081C876.275 662.137 905.199 671.208 938.655 669.966C956.661 669.298 973.438 665.12 990.15 660.715C1003.13 657.294 1015.9 653.505 1029.21 650.718C1055.58 645.195 1079.94 647.948 1102.67 659.064C1132.35 673.577 1156.6 692.064 1177 713.368C1173.04 713.366 1169.09 713.366 1165.13 713.366ZM100.783 713.367C120.002 687.642 137.772 661.293 161.263 637.4C169.58 628.942 179.37 621.487 191.52 615.838C215.725 604.58 239.341 606.325 259.766 621.032C269.944 628.361 278.006 636.949 285.057 645.921C309.059 676.465 343.484 697.638 389.007 709.187C393.312 710.279 397.336 711.959 401.491 713.367H354.012C353.03 712.794 352.166 711.993 351.049 711.682C319.642 702.955 295.075 687.687 273.894 669.013C265.066 661.228 255.759 653.686 244.433 647.708C226.644 638.319 208.076 637.258 188.801 645.118C180.684 648.428 173.508 652.671 167.253 657.686C146.06 674.671 129.479 694.085 112.654 713.367H100.783Z" fill="#008E9E"/>
<path d="M112.652 713.367C129.477 694.085 146.058 674.671 167.251 657.686C173.508 652.672 180.682 648.429 188.799 645.118C208.074 637.258 226.644 638.319 244.431 647.708C255.757 653.686 265.064 661.228 273.892 669.013C295.071 687.689 319.638 702.955 351.047 711.682C352.164 711.993 353.028 712.794 354.01 713.367H296.638C277.463 702.809 258.751 691.762 238.994 681.822C216.142 670.323 194.29 670.896 172.063 682.762C156.034 691.321 142.224 701.635 130.456 713.367H112.652Z" fill="#F5F5F5"/>
<path d="M549.865 713.366C561.304 705.857 575.405 702.719 589.987 700.554C618.488 696.323 647.532 696.128 676.395 695.111C706.952 694.034 737.33 692.002 767.701 689.47C790.211 687.593 812.329 689.578 833.898 694.744C855.807 699.991 876.668 707.162 898.055 713.365C781.991 713.367 665.929 713.366 549.865 713.366Z" fill="white"/>
<path d="M130.458 713.366C142.226 701.635 156.036 691.32 172.065 682.762C194.291 670.895 216.142 670.323 238.996 681.821C258.751 691.76 277.465 702.809 296.64 713.366H221.462C204.317 708.363 187.171 707.827 170.026 713.366H130.458Z" fill="#008E9E"/>
<path d="M973.231 713.367C1004.91 704.876 1035.81 693.858 1070.75 694.968C1094.4 695.719 1115.51 701.854 1133.48 713.367H973.231Z" fill="white"/>
<path d="M458.542 201.616C463.918 188.961 468.929 176.217 474.732 163.667C499.486 110.128 593.101 67.3053 678.981 102.519C685.01 104.99 691.365 107.033 697.509 109.36C728.287 121.016 760.996 126.189 795.627 126.003C826.975 125.834 858.061 123.493 889.219 121.471C941.384 118.086 993.124 112.962 1043.31 101.592C1099.56 88.8466 1155.02 73.898 1213.36 66.892C1289.29 57.7726 1349.01 27.8656 1402.87 -10.043C1411.99 -10.0261 1421.11 -10.0078 1430.23 -9.98951C1398.55 8.08321 1368.25 27.4058 1336.21 45.1664C1297.07 66.861 1254.07 81.2219 1204.92 85.468C1154.77 89.7999 1106.69 100.955 1058.04 110.205C1015.08 118.374 971.461 123.834 927.329 127.35C884.195 130.788 841.162 134.783 797.756 136.277C761.046 137.539 725.629 134.052 691.544 123.821C672.392 118.072 653.57 111.475 633.093 108.614C575.293 100.536 523.536 121.19 500.536 161.07C491.779 176.255 487.864 192.394 482.953 208.313C476.358 229.693 460.178 245.295 433.455 255.207C414.33 262.301 394.975 269 374.323 273.329C353.364 277.723 343.931 272.453 344.895 256.401C346.095 236.409 351.827 216.71 352.833 196.674C354.236 168.71 357.404 140.845 361.482 113.023C362.321 107.293 362.275 101.45 361.949 95.6812C361.152 81.6606 351.961 76.9364 334.034 81.4061C312.655 86.7362 295.49 96.9705 279.009 107.787C252.084 125.456 229.212 145.802 210.131 168.134C183.635 199.146 147.516 221.004 101.468 234.811C65.1878 245.689 29.3088 257.278 -9.60961 262.393C-13.4899 262.904 -17.4336 263.147 -21.3447 263.517C-21.4695 255.207 -21.5981 246.894 -21.7267 238.583C-6.5088 236.325 57.5021 225.752 135.861 165.609C156.065 149.17 177.27 133.387 198.027 117.313L198.121 117.234C227.735 96.8608 294.369 49.3507 385.567 9.52718C397.718 4.22093 411.698 1.46658 426.261 1.97836C439.288 2.43531 446.684 8.45299 446.421 17.921C446.306 22.0659 444.643 25.952 443.034 29.872C430.715 59.8901 410.089 100.446 398.984 143.101C392.959 166.246 390.119 189.774 392.387 213.404C393.078 220.603 394.543 228.424 405.602 231.317C416.673 234.212 426.814 231.764 435.329 225.863L435.533 225.743C449.727 216.521 453.633 211.094 458.542 201.616Z" fill="#008E9E"/>
<path d="M1430.23 -9.99095C1398.55 8.08177 1368.25 27.4044 1336.21 45.165C1297.07 66.8582 1254.07 81.2205 1204.92 85.4666C1154.77 89.7985 1106.69 100.955 1058.04 110.204C1015.08 118.373 971.46 123.832 927.331 127.349C884.196 130.786 841.164 134.782 797.758 136.275C761.048 137.538 725.631 134.051 691.546 123.819C672.394 118.07 653.572 111.473 633.095 108.612C575.295 100.535 523.538 121.189 500.538 161.069C491.781 176.253 487.866 192.393 482.955 208.312C476.36 229.691 460.18 245.294 433.457 255.206C414.332 262.299 394.977 268.999 374.325 273.328C353.366 277.722 343.933 272.452 344.897 256.4C346.097 236.408 351.829 216.708 352.835 196.674C354.238 168.71 357.406 140.845 361.484 113.023C362.323 107.293 362.277 101.45 361.951 95.6812C361.154 81.6606 351.963 76.9364 334.036 81.4061C312.657 86.7362 295.492 96.9705 279.011 107.787C252.086 125.456 229.213 145.802 210.133 168.134C183.637 199.146 147.517 221.004 101.47 234.811C65.1897 245.689 29.3106 257.278 -9.60772 262.393C-13.4862 262.904 -17.4318 263.147 -21.3428 263.517C-22.2087 270.72 -22.2087 277.92 -21.3447 285.121C5.11868 284.351 30.6911 279.606 56.3519 275.476C89.3625 270.163 122.465 267.095 156.238 270.372C166.341 271.641 189.402 273.461 200.116 276.822C221.413 283.5 230.437 290.726 219.842 315.318C213.101 330.964 201.976 345.2 193.1 360.158C189.516 366.198 184.719 372.073 185.622 379.098C182.694 394.962 187.361 400.634 208.351 405.409C233.85 411.21 260.271 414.261 286.174 418.883C324.44 425.712 360.355 437.168 396.609 448.052C416.413 453.996 436.598 459.388 458.554 459.292C476.298 459.215 482.554 453.555 477.878 440.871C470.104 419.781 454.149 403.526 425.871 394.562C408.983 389.208 391.169 385.361 375.734 377.593C339.475 359.344 335.43 331.877 365.804 308.699C378.49 299.017 393.456 291.586 409.336 285.099C419.977 280.752 430.616 276.333 441.675 272.614C477.767 260.48 497.247 239.858 502.723 211.316C505.463 197.031 509.13 182.78 516.49 169.257C531.571 141.545 558.543 124.738 599.814 121.948C620.193 120.57 639.629 124.788 658.696 129.622C683.572 135.928 708.269 142.522 734.628 145.101C761.939 147.771 789.181 147.166 816.407 145.185C856.328 142.28 896.227 139.18 936.079 135.8C975.612 132.448 1015.04 128.428 1054.58 125.124C1078.42 123.132 1102.31 120.563 1126.43 122.842C1130.33 123.211 1134.31 123.665 1137.98 124.636C1149.72 127.746 1153.32 133.016 1149.02 141.601C1141.59 156.444 1127.9 168.793 1117.83 182.604C1090.92 219.543 1070.33 257.832 1069.54 300.485C1069.53 300.967 1069.54 301.449 1069.54 301.932C1069.77 326.726 1081.34 334.677 1115.32 334.136C1157.06 333.471 1185.85 320.11 1200.26 290.56C1214.3 261.773 1221.12 231.861 1228.68 202.024C1233.55 182.828 1237.77 163.55 1243.68 144.492C1248.2 129.931 1257.27 117.097 1271.73 106.908C1324.92 69.4438 1379.12 32.7964 1439.22 1.18534C1446.19 -2.48151 1453.52 -5.72374 1461.89 -7.46297V-10.3579C1451.33 -10.2384 1440.78 -10.1133 1430.23 -9.99095ZM346.149 403.571C343.576 407.166 337.928 405.554 333.022 406.036C316.182 404.917 299.714 401.877 285.395 394.283C276.747 389.698 274.512 384.062 278.371 377.991C282.53 371.448 291.533 368.126 301.11 369.469C306.465 370.22 311.025 372.129 315.147 374.551C324.935 380.302 333.85 386.713 341.524 394.013C344.513 396.856 348.893 399.734 346.149 403.571ZM1154.44 284.901C1145.3 290.304 1135.02 294.175 1123.57 289.919C1111.9 285.58 1110.51 276.993 1111.84 268.542C1114.42 252.061 1122.65 237.288 1139.18 225.517C1142.67 223.034 1146.8 220.86 1151.12 219.21C1161.48 215.247 1170.98 218.28 1174.4 226.415C1176.25 230.805 1177.18 235.334 1177.11 239.209C1176.03 254.604 1172.39 268.674 1159.79 280.688C1158.2 282.204 1156.46 283.707 1154.44 284.901Z" fill="#F5F5F5"/>
<path d="M1032.05 446.748C1032.97 459.747 1033.57 472.794 1028.98 485.519C1018.69 514.011 991.227 530.459 955.244 540.161C940.479 544.143 929.973 537.912 929.353 526.305C928.744 514.905 933.729 504.405 940.652 494.485C959.885 466.921 983.551 441.498 1011.53 418.291C1015.4 415.088 1019.08 409.678 1026.4 411.494C1033.32 413.211 1031.3 419.016 1031.77 422.936C1032.72 430.818 1032.05 438.804 1032.05 446.748Z" fill="#008E9E"/>
<path d="M-21.4944 549.892C-21.5021 494.246 -21.5097 438.6 -21.5155 382.95C-5.36254 385.721 -0.570226 394.976 2.06594 405.313C6.36866 422.184 1.6973 438.841 -0.958065 455.475C-5.44894 483.595 -11.2819 511.589 -17.8118 539.499C-18.6413 543.048 -19.0925 546.65 -21.4944 549.892Z" fill="white"/>
<path d="M925.438 305.423C921.402 337.855 910.393 368.382 880.072 393.658C877.01 396.211 874.043 399.769 868.948 398.182C863.316 396.427 863.299 391.835 863.858 388.053C866.266 371.779 868.773 355.506 871.822 339.29C874.558 324.742 877.553 310.206 883.071 296.025C885.166 290.644 887.821 285.436 892.364 280.95C901.225 272.2 914.2 273.395 919.91 283.405C923.908 290.404 925.355 297.768 925.438 305.423Z" fill="#008E9E"/>
<path d="M458.546 201.611C463.918 188.962 468.929 176.217 474.731 163.668C499.486 110.129 593.101 67.3068 678.981 102.52C685.01 104.992 691.365 107.035 697.509 109.362C728.287 121.017 760.996 126.19 795.627 126.005C826.975 125.836 858.061 123.495 889.219 121.473C941.384 118.087 993.124 112.964 1043.31 101.594C1099.56 88.8482 1155.02 73.8995 1213.36 66.8934C1289.29 57.7741 1349.01 27.8671 1402.87 -10.0415C1394.3 -10.0316 1385.73 -10.0218 1377.17 -10.0105C1339.73 18.4202 1295.39 39.049 1242.91 48.1501C1169.48 60.8842 1097.61 77.1038 1026.11 94.5832C983.186 105.078 938.319 108.965 893.23 111.313C867.266 112.666 841.329 113.758 815.292 114.283C769.288 115.209 729.187 104.819 694.011 83.3746C686.941 79.0652 679.181 75.3463 671.581 71.522C645.907 58.6009 618.612 56.9727 589.715 65.0586C558.115 73.901 529.194 86.389 500.569 99.3411C493.29 102.635 485.933 105.914 478.228 108.609C464.939 113.258 457.532 110.048 457.622 99.3411C457.832 74.9147 472.207 55.1758 496.963 39.3401C508.977 31.6563 523.131 26.4077 537.767 21.8508C545.034 19.5886 552.482 17.4754 558.653 13.741C568.368 7.86258 569.217 3.29308 562.483 -4.40056C560.901 -6.20867 559.578 -8.1363 558.142 -10.0077C546.01 -10.1272 533.869 -10.3606 521.729 -10.3466C464.941 -10.2847 408.154 -10.1553 351.366 -10.0499C312.315 9.32903 275.846 31.1417 239.902 53.4324C206.166 74.3537 169.338 91.2946 126.941 101.221C92.4729 109.291 68.7686 126.745 49.5974 148.326C37.0118 162.493 23.6275 176.265 6.40895 187.722C-1.63202 193.072 -9.75169 198.489 -21.4426 199.152C-21.5367 211.696 -21.6327 226.037 -21.7267 238.587C0.253429 235.937 37.8701 225.322 75.12 205.569C101.489 192.206 125.011 174.808 146.502 157.597C162.017 145.171 178.9 131.339 195.13 119.434C217.763 102.832 311.007 42.273 366.152 18.5186C384.035 10.8151 405.045 1.87723 425.691 1.87723C438.211 1.87723 449.848 9.31216 444.57 22.8322C440.621 32.9484 408.601 101.125 395.286 157.007C389.126 191.642 390.259 197.878 392.306 215.799C394.355 233.736 410.083 238.286 431.455 228.896C442.383 224.086 450.662 217.698 458.546 201.611Z" fill="white"/>
<path d="M1377.17 -10.0148C1339.73 18.4159 1295.39 39.0447 1242.91 48.1458C1169.48 60.8799 1097.61 77.0995 1026.11 94.5789C983.188 105.073 938.321 108.961 893.232 111.309C867.268 112.661 841.331 113.754 815.293 114.278C769.29 115.205 729.189 104.815 694.013 83.3703C686.943 79.0609 679.183 75.342 671.583 71.5177C645.909 58.5966 618.614 56.9684 589.717 65.0543C558.117 73.8967 529.196 86.3848 500.571 99.3368C493.292 102.631 485.935 105.91 478.23 108.605C464.941 113.253 457.534 110.044 457.624 99.3368C457.834 74.9104 472.209 55.1715 496.965 39.3358C508.979 31.652 523.133 26.4034 537.769 21.8465C545.036 19.5843 552.484 17.4711 558.655 13.7367C568.37 7.85825 569.219 3.28875 562.485 -4.40488C560.903 -6.21299 559.58 -8.14062 558.144 -10.012C592.264 -10.5477 626.375 -10.7024 660.49 -9.93187C673.248 -1.97531 686.604 5.41462 697.457 14.9881C712.316 28.0962 719.585 43.9418 728.849 59.069C742.535 81.4117 766.065 94.7673 798.726 97.9589C868.021 104.73 937.436 102.665 1004.34 88.3096C1086.08 70.7711 1166.94 51.0913 1249.34 35.0475C1289.02 27.3229 1323.61 11.6966 1352.59 -9.9867C1360.78 -10.6068 1368.98 -10.5618 1377.17 -10.0148ZM351.366 -10.0556C312.315 9.32331 275.846 31.136 239.902 53.4267C206.166 74.348 169.338 91.2889 126.941 101.215C92.4729 109.286 68.7686 126.74 49.5974 148.32C37.0118 162.487 23.6275 176.259 6.40894 187.717C-1.63202 193.066 -9.7517 198.484 -21.4426 199.146C-22.0627 168.425 -22.4006 137.709 -21.2563 107.012C-15.6614 106.058 -14.016 102.327 -12.1958 99.2454C-4.86722 86.8361 -0.370579 73.8109 2.97598 60.5144C6.89278 44.9513 7.75678 28.8878 16.3488 14.0601C21.4733 5.2192 32.1696 1.25709 44.9568 3.12707C58.1165 5.05048 67.753 11.3887 77.5987 17.3164C93.8573 27.1022 109.615 37.3997 129.274 43.5439C155.053 51.6003 179.802 49.9736 203.397 38.9027C204.179 38.6412 204.958 38.3811 205.74 38.1196C209.386 37.8131 212.544 36.8907 214.46 34.4091C215.004 34.3684 215.447 34.1926 215.793 33.8833C216.278 33.6443 216.764 33.4053 217.248 33.1677C218.173 32.8091 219.101 32.4492 220.026 32.0907L220.524 32.116L220.618 31.7378C221.078 31.6604 221.418 31.4692 221.637 31.1627C222.205 30.8632 222.772 30.5637 223.34 30.2657C224.202 29.9212 225.066 29.5781 225.928 29.2337L226.46 29.2379L226.579 28.8414C227.03 28.7683 227.359 28.5785 227.562 28.2762C228.108 27.9711 228.651 27.6646 229.196 27.3595L229.509 27.1697C230.826 27.0951 231.961 26.8153 232.403 25.7707C232.886 25.7299 233.263 25.5598 233.528 25.2603C233.992 24.996 234.457 24.7302 234.922 24.4659L235.461 24.1172C236.675 24.0947 237.658 23.8276 237.978 22.8532C238.614 22.7225 239.146 22.4722 239.574 22.1052L240.213 22.0476L240.424 21.5963C240.87 21.5232 241.192 21.3362 241.394 21.0367C241.926 20.7302 242.46 20.4237 242.991 20.1172L243.35 19.8824C244.199 19.4254 245.05 18.9685 245.9 18.5101C246.538 18.3695 247.069 18.1122 247.496 17.7396L248.099 17.6974L248.275 17.2672C248.746 17.1688 249.097 16.9621 249.331 16.6486C249.834 16.3575 250.335 16.0665 250.838 15.7754L251.257 15.497C251.892 15.1132 252.526 14.7294 253.162 14.3455C253.981 13.9814 254.803 13.6172 255.623 13.2531L256.045 13.2798L256.07 12.9452C256.583 12.7919 256.979 12.5416 257.261 12.1929C257.969 12.2014 258.392 11.9497 258.53 11.4379C271.123 4.31374 283.718 -2.80906 296.312 -9.93326C314.655 -10.7066 333.011 -10.5055 351.366 -10.0556Z" fill="#008E9E"/>
<path d="M1352.59 -9.9867C1323.61 11.6966 1289.02 27.3229 1249.34 35.0475C1166.94 51.0914 1086.07 70.7697 1004.34 88.3096C937.434 102.665 868.02 104.73 798.724 97.9589C766.063 94.7673 742.533 81.4117 728.847 59.069C719.581 43.9433 712.312 28.0962 697.455 14.9881C686.604 5.41321 673.248 -1.97532 660.488 -9.93187C679.836 -10.6995 699.189 -10.5322 718.545 -10.0429C744.163 5.25574 762.607 24.3577 774.388 46.8888C785.58 68.2938 807.078 80.1028 837.504 83.7415C883.428 89.2319 929.303 88.6962 975.099 82.8824C1014.45 77.8869 1051.73 67.6864 1089.33 58.3379C1136.61 46.5809 1185.71 39.6015 1233.28 28.6446C1268.4 20.553 1301.4 9.46249 1327.8 -10.1132C1336.07 -10.0725 1344.33 -10.0289 1352.59 -9.9867Z" fill="#F5F5F5"/>
<path d="M1327.8 -10.1147C1301.4 9.46106 1268.4 20.5516 1233.28 28.6431C1185.71 39.6001 1136.61 46.5795 1089.33 58.3364C1051.73 67.6849 1014.45 77.8855 975.099 82.881C929.301 88.6948 883.429 89.2319 837.504 83.74C807.078 80.1013 785.58 68.2923 774.388 46.8874C762.607 24.3562 744.163 5.25431 718.545 -10.0444C733.538 -10.0697 748.531 -10.0936 763.526 -10.1189C786.109 5.22759 804.559 23.0458 821.9 41.5839C834.95 55.5329 853.503 63.7298 875.752 67.8607C918.184 75.7385 960.728 74.9272 1002.6 66.8371C1071.09 53.6038 1138.59 37.7259 1207.16 24.6248C1242.23 17.9238 1275.55 8.03678 1303.08 -10.1119C1311.32 -10.1133 1319.56 -10.1133 1327.8 -10.1147Z" fill="#008E9E"/>
<path d="M1303.08 -10.1119C1275.55 8.03816 1242.24 17.9237 1207.16 24.6247C1138.59 37.7258 1071.09 53.6038 1002.6 66.8371C960.73 74.9258 918.186 75.7384 875.752 67.8606C853.503 63.7298 834.95 55.5328 821.9 41.5839C804.557 23.0472 786.107 5.22897 763.526 -10.1175C777.631 -10.1204 791.737 -10.1218 805.835 -10.126C823.582 2.08937 841.281 14.3497 859.114 26.5045C869.493 33.5809 880.324 40.213 892.961 45.1678C927.671 58.7807 964.813 59.3839 1001.78 53.8358C1070.66 43.5017 1138.34 29.4403 1205.95 15.3985C1231.26 10.1429 1255.63 2.66021 1276.14 -10.074C1285.12 -10.0852 1294.1 -10.0979 1303.08 -10.1119Z" fill="white"/>
<path d="M1276.14 -10.0725C1255.62 2.66164 1231.26 10.1444 1205.95 15.4C1138.34 29.4417 1070.66 43.5031 1001.78 53.8372C964.811 59.3839 927.667 58.7807 892.957 45.1692C880.322 40.2131 869.491 33.5824 859.11 26.506C841.277 14.3497 823.578 2.0908 805.832 -10.1245C821.363 -10.0767 836.886 -10.0303 852.411 -9.98392C872.404 1.43983 892.545 12.7061 913.632 23.0529C944.294 38.0971 978.255 41.5235 1013.92 38.1111C1063.89 33.3321 1112.69 24.2606 1161.46 15.3311C1191.76 9.78303 1221.83 3.29012 1248.04 -9.99095C1257.41 -10.0191 1266.77 -10.0458 1276.14 -10.0725Z" fill="#008E9E"/>
<path d="M1248.04 -9.99273C1221.83 3.28835 1191.76 9.78126 1161.46 15.3293C1112.69 24.2603 1063.89 33.3304 1013.93 38.1094C978.257 41.5217 944.296 38.0967 913.634 23.0511C892.547 12.7043 872.406 1.43805 852.413 -9.9857C869.365 -10.0236 886.318 -10.063 903.277 -10.1024C912.659 -4.35607 923.43 -0.16479 933.761 4.52001C963.542 18.0232 995.77 23.4729 1030.83 21.9024C1062.1 20.502 1092.79 16.6974 1123.33 12.0674C1155.45 7.19703 1187.35 1.60255 1216.54 -9.99554C1227.04 -10.5987 1237.54 -10.6057 1248.04 -9.99273Z" fill="#F5F5F5"/>
<path d="M1216.54 -9.99674C1187.35 1.60135 1155.45 7.19583 1123.33 12.0662C1092.79 16.6962 1062.11 20.5008 1030.83 21.9012C995.77 23.4703 963.542 18.022 933.761 4.51881C923.43 -0.164578 912.661 -4.35587 903.277 -10.1036C920.813 -10.4621 938.35 -10.7236 955.884 -9.94612C972.042 -2.70663 989.643 1.81226 1008.1 4.57083C1034.51 8.51607 1061.1 7.80603 1087.63 5.51004C1118.62 2.82879 1149.32 -0.92663 1178.3 -9.97143C1191.05 -10.6379 1203.79 -10.5999 1216.54 -9.99674Z" fill="#008E9E"/>
<path d="M1178.3 -9.97137C1149.32 -0.926574 1118.62 2.82885 1087.63 5.51009C1061.1 7.80609 1034.51 8.51612 1008.1 4.57089C989.645 1.81231 972.044 -2.70657 955.885 -9.94607C973.924 -10.0881 991.985 -10.7222 1010 -10.2793C1062.18 -8.99561 1114.35 -10.382 1166.53 -10.3538C1170.45 -10.351 1174.38 -10.1036 1178.3 -9.97137Z" fill="white"/>
<path d="M247.121 -10.0571C234.637 -2.88228 221.161 3.09462 206.665 7.82581C182.114 15.8372 158.64 14.4537 136.274 3.46159C128.056 -0.576438 120.202 -4.94067 113.134 -10.0318C157.795 -10.0417 202.458 -10.0487 247.121 -10.0571ZM1177.11 239.209C1176.03 254.604 1172.39 268.674 1159.79 280.688C1158.2 282.204 1156.46 283.707 1154.44 284.901C1145.3 290.304 1135.02 294.175 1123.57 289.919C1111.9 285.58 1110.51 276.993 1111.84 268.542C1114.42 252.061 1122.65 237.288 1139.18 225.517C1142.67 223.034 1146.8 220.86 1151.12 219.21C1161.48 215.247 1170.98 218.28 1174.4 226.415C1176.25 230.805 1177.18 235.334 1177.11 239.209ZM333.022 406.036C316.182 404.917 299.714 401.877 285.395 394.283C276.747 389.698 274.512 384.063 278.373 377.991C282.532 371.448 291.535 368.126 301.112 369.469C306.467 370.22 311.027 372.129 315.149 374.551C324.937 380.302 333.851 386.713 341.526 394.012C344.515 396.855 348.895 399.734 346.149 403.57C343.576 407.166 337.928 405.554 333.022 406.036Z" fill="#008E9E"/>
<path d="M247.121 -10.0571C234.637 -2.88223 221.161 3.09467 206.665 7.82586C182.114 15.8372 158.64 14.4537 136.274 3.46164C128.056 -0.577794 120.202 -4.94062 113.134 -10.0318C70.2989 -10.1414 27.4656 -10.1963 -15.3677 -10.4226C-20.7936 -10.4507 -21.9686 -8.79024 -21.9418 -5.24572C-21.6883 26.8181 -21.6 58.8833 -21.4618 90.9472C-21.3926 96.2956 -21.3235 101.645 -21.2563 107.011C-15.6614 106.056 -14.016 102.326 -12.1958 99.244C-4.86721 86.8346 -0.37057 73.8094 2.97599 60.5129C6.89279 44.9499 7.75679 28.8863 16.3488 14.0587C21.4733 5.21773 32.1696 1.25563 44.9568 3.12561C58.1165 5.04901 67.753 11.3873 77.5987 17.3149C93.8573 27.1007 109.615 37.3997 129.274 43.5425C155.053 51.5989 179.802 49.9721 203.399 38.9013C204.177 38.6412 204.958 38.3796 205.74 38.1195C209.386 37.813 212.544 36.8907 214.466 34.4077C215.004 34.3669 215.447 34.1912 215.793 33.8818C216.278 33.6428 216.764 33.4038 217.252 33.1634C218.175 32.8063 219.101 32.4463 220.026 32.0878L220.524 32.1131C220.524 32.1131 220.618 31.7349 220.625 31.7321C221.08 31.659 221.42 31.4663 221.637 31.1598C222.205 30.8589 222.776 30.5595 223.342 30.2614C224.202 29.9183 225.066 29.5753 225.928 29.2308L226.46 29.235C226.46 29.235 226.579 28.8385 226.585 28.8357C227.03 28.7654 227.357 28.577 227.562 28.2733C228.108 27.9668 228.655 27.6603 229.198 27.3552C229.196 27.3566 229.509 27.1668 229.509 27.1668C230.828 27.0923 231.961 26.8125 232.408 25.7664C232.888 25.727 233.263 25.5569 233.53 25.2574C233.994 24.9931 234.459 24.7274 234.927 24.4616C234.924 24.4631 235.463 24.1158 235.463 24.1158C236.676 24.0933 237.66 23.8261 237.986 22.8504C238.616 22.721 239.148 22.4707 239.576 22.1038L240.215 22.0461C240.215 22.0461 240.426 21.5948 240.432 21.592C240.872 21.5217 241.194 21.3347 241.396 21.0352C241.93 20.7273 242.463 20.4208 242.995 20.1143C242.993 20.1157 243.352 19.8809 243.352 19.8809C244.205 19.4225 245.059 18.9656 245.906 18.5086C246.538 18.3694 247.069 18.1122 247.496 17.7382L248.099 17.696C248.099 17.696 248.273 17.2657 248.281 17.2629C248.746 17.1673 249.097 16.9606 249.331 16.6471C249.834 16.3561 250.335 16.065 250.84 15.7726C250.838 15.774 251.255 15.4956 251.255 15.4956C251.891 15.1103 252.526 14.7265 253.16 14.3427C253.98 13.9799 254.799 13.6158 255.621 13.2516C255.621 13.2516 256.08 12.9381 256.074 12.9409C256.581 12.7918 256.977 12.5402 257.259 12.1915C257.628 11.8878 258.052 11.6347 258.53 11.4351C271.121 4.31368 283.715 -2.81053 296.31 -9.93473C279.913 -10.6926 263.518 -10.5126 247.121 -10.0571Z" fill="#F5F5F5"/>
</g>
</g>
</g>
<defs>
<clipPath id="clip0_24_2">
<rect width="1440" height="703" fill="white"/>
</clipPath>
</defs>
</svg>
